<svg width="234" height="285" viewBox="0 0 234 285" fill="none" xmlns="http://www.w3.org/2000/svg">
<path d="M1.00486 85.1825C2.83336 101.696 8.19886 110.234 21.5054 117.759C28.3655 121.638 36.3102 122.98 44.1912 122.98H54.7765C64.9497 122.98 74.6173 127.416 81.2524 135.128C82.6087 136.704 83.8215 138.398 84.8763 140.191L87.7916 145.144C94.9778 157.353 98.7674 171.262 98.7674 185.429V206.519C98.7674 209.806 98.2244 220.762 98.7674 222.953C99.3104 225.144 103.112 235.552 104.741 238.017C106.37 240.482 108.814 250.069 108.814 251.712V273.076C108.814 278.278 112.605 282.703 117.745 283.501L121.413 284.07C124.685 284.578 128.034 283.98 130.928 282.37L141.327 276.587C145.514 274.259 149.341 271.335 152.688 267.908L158.408 262.052C163.345 256.997 167.762 251.461 171.594 245.525L181.037 230.896L188.279 217.961C194.391 207.047 197.6 194.746 197.6 182.237V175.571C197.6 171.582 198.287 167.623 199.631 163.867C200.626 161.089 202.037 158.487 203.5 155.924C203.748 155.49 203.982 155.063 204.206 154.636C206.651 149.982 209.232 145.408 212.517 141.304C212.809 140.938 213.098 140.57 213.383 140.196C215.899 136.901 218.334 133.529 221.218 130.551L224.245 127.427C227.096 124.484 231.876 123.287 233.695 119.617C234.238 118.521 230.788 112.032 229.973 111.758C229.159 111.484 216.877 105.725 216.877 105.725L205.622 99.3718C198.002 95.071 191.319 89.2089 186.045 82.2269C182.733 77.8416 179.989 73.0181 177.918 67.9274C174.255 58.9189 168.591 50.8413 161.066 44.6806C152.668 37.805 141.229 28.9531 132.691 24.3007C117.469 16.0074 84.9034 2.66289 82.7313 2.66289C80.5591 2.66289 58.1615 -0.377051 49.0797 1.6437C39.9978 3.66444 15.1235 25.3964 8.60735 39.4416C2.0912 53.4867 -0.629694 64.0141 1.00486 85.1825Z" fill="#212832" fill-opacity="0.7"/>
</svg>
