<svg width="150" height="122" viewBox="0 0 150 122" fill="none" xmlns="http://www.w3.org/2000/svg">
<path d="M4.15965 91.2609L4.57585 92.1793C6.42475 96.2592 9.49102 100.995 13.9703 100.995C14.1509 100.995 15.5578 100.901 17.4068 100.77C22.89 100.384 28.3312 99.5286 33.6761 98.2449L39.7879 96.7769C41.7593 96.3034 43.6832 95.6504 45.5355 94.826L46.2566 94.5051C50.0319 92.8249 54.1182 91.9567 58.2505 91.9567H59.0745C63.5063 91.9567 67.8662 93.077 71.7491 95.2135C75.7011 97.3881 79.0272 100.543 81.4075 104.375L88.0816 115.118C89.6739 117.681 92.0746 119.641 94.9047 120.688C97.3709 121.6 100.049 121.776 102.614 121.196L111.988 119.073L112.241 118.984C120.161 116.205 126.894 110.805 131.327 103.678C132.551 101.711 133.957 99.8643 135.527 98.1615L141.96 91.1859C143.335 89.695 144.557 88.07 145.607 86.3353C148.481 81.5916 150.001 76.1512 150.001 70.6049V67.3059L149.598 63.0441C148.796 54.5446 145.935 46.2242 140.498 39.6423C139.14 37.9989 133.981 25.3996 133.167 23.4823C132.352 21.5651 128.279 16.6349 124.478 16.6349C120.677 16.6349 113.617 16.9088 111.988 16.6349C110.685 16.4158 109.273 14.9002 108.73 14.1698C106.015 10.7918 100.204 3.5426 98.6838 1.57053C96.7832 -0.894543 93.2535 1.29665 90.8098 1.57053C88.3811 1.84274 81.5782 4.85731 79.9491 6.22679C78.32 7.59628 72.0751 10.8831 70.7175 12.2525C69.3599 13.622 51.7113 30.6037 49.2676 32.7949C46.824 34.986 38.95 38.8206 37.3209 39.6423C35.6917 40.464 14.5134 47.3114 10.7121 50.0504C6.91089 52.7894 3.10964 58.8151 3.10964 61.0063C3.10964 63.1975 0.9375 72.7839 0.9375 74.7012C0.9375 75.9669 1.92356 82.0445 2.67515 86.4392C2.95991 88.1042 3.46241 89.7223 4.15965 91.2609Z" fill="#212832" fill-opacity="0.7"/>
</svg>
