<svg width="1000" height="557" viewBox="0 0 1000 557" fill="none" xmlns="http://www.w3.org/2000/svg">
<path d="M430.005 258.182C431.833 274.696 437.199 283.234 450.505 290.759C457.366 294.638 465.31 295.98 473.191 295.98H483.777C493.95 295.98 503.617 300.416 510.252 308.128C511.609 309.704 512.821 311.398 513.876 313.19L516.792 318.143C523.978 330.353 527.767 344.262 527.767 358.429V379.519C527.767 382.806 527.224 393.762 527.767 395.953C528.31 398.144 532.112 408.552 533.741 411.017C535.37 413.482 537.814 423.069 537.814 424.712V446.076C537.814 451.278 541.605 455.703 546.745 456.501L550.413 457.07C553.685 457.578 557.034 456.98 559.928 455.37L570.327 449.587C574.514 447.259 578.341 444.335 581.688 440.908L587.408 435.052C592.345 429.997 596.762 424.461 600.594 418.525L610.037 403.896L617.279 390.961C623.391 380.047 626.6 367.746 626.6 355.237V348.571C626.6 344.582 627.287 340.623 628.631 336.867C629.626 334.089 631.037 331.487 632.5 328.924C632.748 328.49 632.982 328.063 633.206 327.636C635.651 322.982 638.232 318.408 641.517 314.304C641.809 313.938 642.098 313.57 642.383 313.196C644.899 309.901 647.334 306.528 650.218 303.551L653.245 300.427C656.096 297.484 660.876 296.287 662.695 292.617C663.238 291.521 659.788 285.032 658.973 284.758C658.159 284.484 645.877 278.725 645.877 278.725L634.622 272.372C627.002 268.071 620.319 262.209 615.045 255.227C611.733 250.842 608.989 246.018 606.918 240.927C603.255 231.919 597.591 223.841 590.066 217.681C581.668 210.805 570.229 201.953 561.691 197.301C546.469 189.007 513.903 175.663 511.731 175.663C509.559 175.663 487.162 172.623 478.08 174.644C468.998 176.664 444.123 198.396 437.607 212.442C431.091 226.487 428.37 237.014 430.005 258.182Z" fill="#212832" fill-opacity="0.7"/>
<path d="M449.361 151.217C449.361 151.282 449.536 151.815 449.809 152.603C451.388 157.175 454.783 160.887 459.136 162.994C460.674 163.542 463.86 164.638 464.295 164.638H464.367C469.009 164.638 473.742 164.474 478.142 162.994C481.302 161.932 483.496 158.996 486.526 157.606L487.383 157.213C489.72 156.142 491.907 154.771 493.89 153.134C495.972 151.673 500.244 148.642 500.678 148.204C501.221 147.656 506.651 145.191 507.737 144.096C508.823 143 512.625 142.452 513.982 141.63C515.068 140.973 518.236 141.904 519.684 142.452L530.273 145.191C534.437 146.561 543.143 149.464 544.664 150.121C546.564 150.943 550.637 151.491 553.081 152.039C555.525 152.586 561.226 153.134 562.584 153.134C563.942 153.134 570.458 153.682 572.359 153.956C574.259 154.23 575.617 155.325 576.431 156.147C577.246 156.969 578.06 159.434 578.875 160.803C579.69 162.173 579.69 164.09 579.961 165.733C580.233 167.377 581.59 171.211 582.405 171.759C583.056 172.197 586.84 173.768 588.65 174.498C591.365 175.229 596.958 176.744 597.61 176.963C598.424 177.237 601.954 178.607 603.583 179.154C605.212 179.702 606.027 182.989 606.027 184.085C606.027 185.18 604.941 187.371 604.398 188.193C603.855 189.015 601.139 190.658 600.325 191.754C599.51 192.849 599.239 195.04 599.239 196.41C599.239 197.779 600.325 200.792 601.139 202.162C601.954 203.531 604.941 207.914 606.027 209.557C606.896 210.872 610.371 214.852 612 216.678C613.539 218.778 616.67 223.033 616.887 223.252C617.105 223.471 619.693 229.004 620.96 231.743L622.998 235.764C625.792 241.28 629.245 246.436 633.28 251.121L634.59 252.642C639.228 258.028 644.929 262.287 650.827 266.254C651.003 266.372 651.513 266.533 652.214 266.714C656.738 267.882 661.519 267.119 665.761 265.158L666.575 264.763C667.831 264.3 668.991 263.608 669.994 262.722L672.82 260.228L675.721 257.667C676.675 256.825 677.467 255.816 678.059 254.689C679.067 252.769 679.452 250.583 679.161 248.434L678.977 247.068C678.855 246.165 678.65 245.277 678.364 244.412L677.884 242.958C677.406 241.514 676.73 240.144 675.873 238.887C674.752 237.242 673.34 235.816 671.706 234.68L666.304 230.921L662.987 228.319C661.947 227.502 661.045 226.524 660.316 225.421C659.606 224.347 659.069 223.168 658.724 221.927L658.622 221.559C657.793 218.57 657.06 214.773 659.244 212.57C661.355 210.441 664.417 209.557 667.415 209.557H667.849C669.52 209.557 671.178 209.858 672.742 210.445L682.052 213.939L695.628 221.061L695.82 221.185C706.698 228.201 716.745 236.429 725.766 245.711L725.931 245.926C732.147 253.987 737.72 262.524 742.6 271.458C744.41 276.114 748.085 285.591 748.302 286.248C748.573 287.07 752.375 291.726 753.189 292.548C754.004 293.37 756.447 293.37 756.991 293.37C757.232 293.37 758.548 292.692 759.995 291.903C762.149 290.728 764.318 289.268 765.408 287.07C765.679 286.522 768.123 281.318 768.394 280.496C769.309 277.727 768.451 274.691 767.507 271.931L766.77 269.773C766.407 268.711 765.887 267.709 765.226 266.801C763.928 265.015 763.171 262.886 763.13 260.678C763.099 259.013 763.11 257.468 763.235 257.215C763.507 256.667 764.322 252.559 764.593 252.011L765.141 250.906C766.213 248.742 767.701 246.811 769.519 245.222C770.396 244.454 771.345 243.773 772.349 243.181C774.074 242.163 776.104 240.947 776.268 240.781C776.54 240.507 778.44 239.138 778.983 238.59C779.526 238.042 782.242 237.768 782.785 237.495C783.01 237.381 783.779 237.361 784.632 237.38C786.114 237.414 787.577 237.692 789.006 238.086C791.538 238.782 793.934 239.901 796.088 241.403C798.789 243.285 801.64 245.286 801.791 245.438C804.873 248.546 808.273 251.326 810.885 254.839L811.123 255.159C813.76 258.706 815.937 262.575 817.6 266.671L824.327 283.235L827.569 293.048C829.744 299.629 832.707 305.923 836.395 311.792C840.816 318.829 846.235 325.186 852.482 330.666L855.551 333.359L865.326 341.302C871.299 344.954 883.355 352.258 883.789 352.258C884.332 352.258 894.65 355.27 896.551 356.092C898.451 356.914 907.14 359.379 908.226 360.201C908.956 360.753 917.289 360.57 923.313 360.335C925.381 360.254 927.947 360.848 929.404 359.379C929.676 359.105 931.305 356.366 931.305 356.092C931.305 353.62 929.611 351.459 927.579 350.05L926.417 349.245L916.1 343.767L900.623 336.098C892.682 332.639 885.143 328.324 878.138 323.229L877.001 322.403C874.648 320.12 869.833 315.501 869.399 315.281C868.856 315.008 867.498 311.447 867.227 311.173C866.955 310.899 865.869 307.065 864.783 306.243C862.652 304.631 864.24 301.064 864.24 298.392V292.548C864.24 289.802 865.869 287.275 865.869 284.529V281.592C865.869 281.318 866.412 275.84 866.412 275.292C866.412 274.745 865.598 269.541 865.326 268.993C865.055 268.445 862.882 263.515 862.611 263.241C862.419 263.047 859.944 259.55 858.311 257.229C857.919 256.673 857.581 256.082 857.298 255.464C856.509 253.738 856.173 251.84 856.323 249.949L856.343 249.704C856.535 247.281 857.45 244.97 858.985 243.085C859.722 242.179 860.334 241.435 860.439 241.329C860.71 241.055 865.326 238.59 865.869 238.316C866.176 238.161 870.4 235.071 874.286 232.209C877.181 230.078 879.901 227.722 882.432 225.169C882.703 224.895 884.061 219.965 884.061 219.417V212.844V205.996C884.694 201.431 885.961 192.192 885.961 191.754C885.961 191.206 888.133 185.728 888.405 185.18C888.677 184.632 891.663 181.072 891.663 180.798C891.663 180.579 896.913 174.863 899.537 172.033C901.619 169.568 905.836 164.638 906.054 164.638C906.204 164.638 907.914 162.289 909.525 160.023C910.834 158.183 911.882 156.171 912.669 154.054C913.504 151.808 914.034 149.459 914.242 147.071L914.558 143.457C914.68 142.064 914.604 140.66 914.332 139.288C914.064 137.935 913.608 136.626 912.977 135.399L910.126 129.853C909.402 128.209 907.9 124.868 907.683 124.649C904.905 121.846 905.388 117.12 905.673 113.185L906.054 107.941C906.235 105.476 906.597 100.436 906.597 99.998C906.597 99.4502 908.497 96.1634 909.04 95.6156C909.583 95.0679 911.756 93.6984 912.027 93.4245C912.299 93.1506 921.259 92.6028 922.345 92.8767C923.431 93.1506 930.49 95.8895 931.576 96.1634C932.662 96.4373 935.921 101.641 936.735 103.285C937.114 104.05 938.124 105.593 939.134 107.074C940.406 108.937 941.953 110.593 943.68 112.044L948.267 115.901C949.943 117.309 952.044 118.112 954.232 118.179C957.689 118.284 960.912 116.526 962.813 113.636C963.091 113.215 963.287 112.929 963.344 112.871C963.615 112.597 965.788 106.298 966.059 105.476C966.276 104.819 967.96 101.367 968.774 99.7241C970.765 96.346 974.802 89.5351 975.019 89.316C975.291 89.0421 981.807 80.0035 982.622 79.4557C983.436 78.9079 987.78 75.895 988.595 75.3472C988.828 75.1908 989.159 74.8902 989.519 74.535C990.758 73.3102 991.644 71.7844 992.299 70.1699L992.518 69.6292C993.33 67.6275 993.648 65.4598 993.445 63.3094C993.29 61.6708 992.836 60.0745 992.105 58.5999L991.762 57.908C990.923 56.2155 989.844 54.6391 988.428 53.388C987.762 52.799 987.174 52.3398 986.966 52.3398C978.924 52.3398 972.003 46.3963 964.012 45.4895L932.662 41.9317L890.306 38.645L861.796 36.1799L819.168 31.5236L784.957 27.4152L764.322 25.7718L741.786 24.1284C735.903 24.0371 723.702 23.9093 721.965 24.1284C715.148 24.988 708.282 25.4926 701.605 27.1126L690.197 29.8802L656.801 41.11C652.818 42.5708 644.745 45.5472 644.311 45.7663C643.768 46.0402 628.291 51.2442 627.205 51.792C626.336 52.2303 620.689 52.8876 617.974 53.1615L563.399 52.6137H553.895C553.244 52.6137 548.737 52.9789 546.564 53.1615L539.033 53.892C534.656 54.3166 530.314 55.1661 526.201 56.7222C524.028 57.5439 517.784 60.2829 516.426 60.5568C515.068 60.8307 511.267 63.0218 509.638 64.1174C508.335 64.9939 506.923 66.3086 506.38 66.8564L499.841 72.9025C497.699 74.884 496.042 77.2947 494.433 79.7296C493.89 80.5513 491.446 84.9336 490.903 86.577C490.36 88.2204 489.546 90.9594 489.274 92.055C489.137 92.6067 487.918 95.6476 486.671 98.6906C485.346 101.927 484.524 105.332 483.844 108.763C483.572 110.132 481.4 114.788 481.129 115.884C480.857 116.98 477.87 120.54 477.327 121.362C476.893 122.019 474.069 124.192 472.712 125.197C468.005 128.666 458.43 135.714 457.778 136.152C456.964 136.7 453.162 139.987 452.348 140.809C451.533 141.63 449.632 145.191 449.361 145.739C449.089 146.287 449.361 150.943 449.361 151.217Z" fill="#212832" fill-opacity="0.7"/>
<path d="M854.16 458.261L854.576 459.179C856.425 463.259 859.491 467.995 863.97 467.995C864.151 467.995 865.558 467.901 867.407 467.77C872.89 467.384 878.331 466.529 883.676 465.245L889.788 463.777C891.759 463.303 893.683 462.65 895.536 461.826L896.257 461.505C900.032 459.825 904.118 458.957 908.25 458.957H909.074C913.506 458.957 917.866 460.077 921.749 462.213C925.701 464.388 929.027 467.543 931.408 471.374L938.082 482.118C939.674 484.681 942.075 486.641 944.905 487.688C947.371 488.6 950.049 488.776 952.614 488.195L961.988 486.073L962.241 485.984C970.161 483.205 976.894 477.805 981.327 470.678C982.551 468.711 983.957 466.864 985.527 465.161L991.96 458.186C993.335 456.695 994.557 455.07 995.607 453.335C998.481 448.592 1000 443.151 1000 437.605V434.306L999.598 430.044C998.796 421.545 995.935 413.224 990.498 406.642C989.14 404.999 983.981 392.4 983.167 390.482C982.352 388.565 978.279 383.635 974.478 383.635C970.677 383.635 963.617 383.909 961.988 383.635C960.685 383.416 959.273 381.9 958.73 381.17C956.015 377.792 950.204 370.543 948.684 368.571C946.783 366.105 943.253 368.297 940.81 368.571C938.381 368.843 931.578 371.857 929.949 373.227C928.32 374.596 922.075 377.883 920.718 379.253C919.36 380.622 901.711 397.604 899.268 399.795C896.824 401.986 888.95 405.821 887.321 406.642C885.692 407.464 864.513 414.311 860.712 417.05C856.911 419.789 853.11 425.815 853.11 428.006C853.11 430.197 850.938 439.784 850.938 441.701C850.938 442.967 851.924 449.044 852.675 453.439C852.96 455.104 853.462 456.722 854.16 458.261Z" fill="#212832" fill-opacity="0.7"/>
<path d="M223.459 291.331L221.015 299.822C220.563 302.744 219.658 308.751 219.658 309.409C219.658 310.23 217.214 315.708 216.943 316.53C216.671 317.352 213.685 321.734 213.413 322.556C213.141 323.377 210.155 327.486 209.34 328.034C208.526 328.581 207.44 332.416 207.44 332.964C207.44 335.987 206.25 338.907 206.574 341.913L207.084 346.643C207.321 348.841 207.725 351.019 208.349 353.14C208.729 354.431 209.114 355.674 209.34 356.245C209.883 357.615 215.585 366.653 216.128 367.475C219.158 372.06 222.653 376.319 226.45 380.292L235.406 389.661C238.212 392.673 243.986 398.918 244.638 399.795C245.452 400.89 247.624 405.273 248.167 406.916C248.71 408.56 250.068 412.668 250.068 414.311V423.35C250.068 423.788 248.077 430.289 247.081 433.484C246.629 434.762 245.615 437.538 245.181 438.414C244.638 439.51 243.823 454.3 243.823 455.122V468.543L245.724 488.811C245.995 491.185 246.647 496.097 247.081 496.755C247.624 497.576 248.982 503.876 249.525 504.698C250.068 505.519 252.512 514.01 252.783 514.01C253.055 514.01 257.399 524.692 257.942 525.514C262.026 531.693 266.282 537.761 271.496 543.022L275.319 546.878C276.677 548.43 279.392 551.698 279.392 552.356C279.392 553.177 284.551 555.369 285.908 556.19C287.266 557.012 290.796 556.19 291.61 556.19C292.425 556.19 295.14 555.369 295.683 555.369C296.226 555.369 298.67 552.904 298.941 552.356C299.213 551.808 298.127 548.795 297.583 547.973C295.72 545.153 292.261 543.805 289.779 541.51L286.994 538.935C284.492 537.132 282.365 534.818 281.075 532.017C280.575 530.932 280.206 529.999 280.206 529.622C280.206 528.527 279.392 523.323 279.392 522.227V514.01C279.392 512.641 279.12 508.258 279.392 507.437C279.663 506.615 280.206 501.411 280.206 500.315C280.206 499.439 281.654 497.028 282.378 495.933L286.18 488.811L286.679 487.972C287.971 485.8 289.504 483.779 291.248 481.95L292.264 480.883C294.346 478.7 296.799 476.903 299.508 475.578C302.715 474.01 305.555 471.785 307.846 469.048L311.808 464.316C313.725 462.025 315.451 459.581 316.968 457.007L320.662 450.74L326.444 440.62C328.738 436.604 331.441 432.836 334.51 429.376C336.954 427.093 342.221 422.364 343.741 421.707C345.642 420.885 348.357 419.515 350.529 418.146C352.702 416.776 352.973 415.133 353.245 414.585C353.516 414.037 354.331 410.751 354.602 409.929C354.874 409.107 355.145 405.821 355.145 404.999C355.145 404.341 355.507 401.986 355.688 400.89L357.589 390.482L358.786 386.759C360.157 382.495 363.834 378.802 363.834 374.322C363.834 374.172 364.11 373.632 364.52 372.913C366.295 369.805 367.685 366.482 368.309 362.957L368.336 362.804C368.592 361.356 368.721 359.888 368.721 358.417V356.234C368.721 353.192 367.911 350.205 366.373 347.581C365.589 346.242 364.629 345.014 363.505 343.945C361.115 341.67 358.004 338.788 357.317 338.442C356.231 337.894 351.072 337.346 348.629 337.346C340.568 337.346 332.918 333.902 326.229 329.403L325.007 328.581C322.835 326.664 318.327 322.665 317.676 322.008L312.724 317.013C311.864 316.145 311.091 315.195 310.417 314.175C309.291 312.47 307.89 310.962 306.273 309.713L300.89 305.553C297.609 303.018 294.641 300.109 291.842 297.049C291.01 296.14 290.309 295.414 289.981 295.166C288.895 294.344 283.465 290.784 282.378 289.962C281.292 289.14 276.134 285.306 275.319 284.484C274.667 283.827 270.703 282.749 268.803 282.293C263.463 281.106 252.349 278.677 250.611 278.458C248.439 278.184 242.194 279.554 240.565 279.554H233.777C232.962 279.554 229.976 280.649 229.161 281.471C228.346 282.293 225.36 286.401 225.088 287.223C224.871 287.88 223.912 290.236 223.459 291.331Z" fill="#212832" fill-opacity="0.7"/>
<path d="M206.689 283.095L202.281 280.649C198.143 278.835 194.32 276.376 190.952 273.365L186.597 269.471C184.934 267.984 183.492 266.265 182.317 264.368C179.93 260.515 176.482 257.418 172.337 255.586C169.504 254.334 166.924 253.26 166.44 253.26C165.354 253.26 156.123 250.795 153.95 249.973C152.813 249.543 149.986 248.933 147.432 248.434C145.113 247.982 142.903 247.075 140.974 245.712C139.322 244.546 137.907 243.077 136.808 241.381C134.903 238.441 132.665 234.965 132.501 234.635C132.283 234.196 130.057 228.426 128.971 225.596L124.627 214.64L123.252 211.712C122.541 210.199 121.989 208.616 121.605 206.988C121.088 204.796 120.267 202.687 119.166 200.722L117.296 197.385L112.951 190.811C111.775 189.168 109.15 185.607 108.064 184.511C106.978 183.416 104.534 181.316 103.448 180.403L97.8012 174.89C95.9715 173.104 94.5013 170.983 93.4704 168.643C92.351 166.103 91.7729 163.357 91.7729 160.581V160.134V159.333C91.7729 155.146 92.4139 150.981 93.6736 146.987L96.3887 136.305L101.819 122.063C102.719 120.246 103.35 118.309 103.692 116.31L103.777 115.809C104.278 112.882 104.238 109.887 103.661 106.974L103.177 104.533L102.028 100.928C101.175 98.252 99.7393 95.7991 97.8236 93.7458L97.5467 93.449C96.7771 92.6241 96.101 91.7167 95.5308 90.7432C93.7997 87.7881 91.1278 85.4987 87.9422 84.2413L84.8058 83.0033C81.8744 81.8461 78.7509 81.252 75.5993 81.252H71.6806C70.0515 81.252 60.5484 82.0737 59.1908 82.8954C57.8332 83.717 52.6744 87.0038 51.5883 88.3733C50.5023 89.7428 43.9858 91.3862 42.6283 92.2079C41.2707 93.0296 34.4827 97.138 33.6682 97.4119C27.3845 99.5248 21.238 102.068 14.6086 102.068H7.60249L5.31315 101.78C2.80542 101.463 0.803583 99.5367 0.391563 97.0429C0.14114 95.5272 0.511745 93.9745 1.41973 92.7353L3.83458 89.4395C4.35444 88.73 4.93233 88.0662 5.56916 87.4595C7.80065 85.3335 11.1118 82.2631 11.6753 82.0737C12.4898 81.7998 18.1917 78.2391 18.7347 77.9652C22.2516 76.1914 24.585 72.9696 25.6756 69.1847L26.0657 67.831C27.0613 64.5442 29.0524 57.8063 29.0524 57.149C29.0524 52.3951 34.7582 49.6436 38.9163 47.3395L50.9747 40.6578C51.5553 40.3361 52.2081 40.1673 52.8718 40.1673C53.1018 40.1673 53.3289 40.1475 53.5553 40.1073C58.2785 39.2683 67.3027 37.7023 68.1509 37.7023C73.7749 37.7023 79.3898 37.1447 84.9893 37.6688L102.905 39.3456L118.002 38.8795C125.631 38.6439 133.177 37.2305 140.375 34.6894L153.679 31.1287L176.758 21.5423C183.443 18.2615 190.396 15.5555 197.54 13.4535L199.837 12.7776C206.153 10.229 212.731 8.3837 219.451 7.27517L240.711 3.76821C248.555 2.47434 256.508 2.36949 264.458 2.36949C266.087 2.36949 281.021 3.46508 282.378 3.46508H296.497L349.986 1H358.403L367.906 1.8217C371.165 2.2782 378.007 3.19118 379.31 3.19118H392.886H405.104L420.309 1.8217C426.192 1.45651 438.501 0.945231 440.673 1.8217C443.388 2.91729 445.832 4.01288 446.918 4.83458C448.004 5.65627 449.09 8.66914 449.09 9.49083C449.09 12.2697 447.51 14.7905 446.118 17.1953C445.979 17.4351 445.877 17.6161 445.832 17.7078C445.56 18.2556 435.786 27.2942 434.7 28.1159C433.614 28.9376 429.541 32.2243 428.726 33.3199C427.912 34.4155 423.296 39.3457 422.21 39.6196C421.124 39.8935 413.793 45.9192 412.435 47.0148C412.327 47.1025 412.203 47.1982 412.066 47.3002C409.174 49.4622 405.875 51.0026 402.545 52.3981L393.215 56.3074C391.026 57.2245 388.488 57.176 386.37 58.2446C385.283 58.7924 378.224 62.0792 377.681 62.0792C377.138 62.0792 373.608 65.9137 373.065 66.7354C372.522 67.5571 369.535 72.2134 369.264 72.2134C369.047 72.2134 366.458 76.4131 365.191 78.513C364.008 80.3884 361.946 81.5259 359.728 81.5259H355.345C354.492 81.5259 353.644 81.4026 352.826 81.16C350.654 80.5155 348.811 79.0633 347.677 77.102L347.172 76.2287C346.17 74.4955 345.642 72.5285 345.642 70.5263V69.4744C345.642 68.9266 345.913 62.6269 345.642 62.0792C345.37 61.5314 345.642 56.3273 346.185 55.2317C346.619 54.3552 346.004 49.5712 345.642 47.2887C344.747 42.5934 342.488 38.3512 340.397 34.053C340.303 33.8597 340.239 33.7034 340.212 33.5938C340.061 32.9857 338.246 31.815 336.544 30.8501C335.214 30.0965 333.736 29.6574 332.221 29.4581L330.84 29.2764C329.159 29.0552 327.449 29.3216 325.915 30.0439C324.779 30.5784 323.77 31.3482 322.955 32.3022L317.404 38.7979L313.874 43.4541L310 47.5C306.5 52 306.717 51.3426 306.5 52C306.283 52.6574 302.652 56.9664 301.928 57.6968L300.407 59.5012C298.348 61.9455 295.411 64.3608 295.411 67.5571V68.629C295.411 70.954 296.175 73.2147 297.585 75.0635C297.945 75.5364 298.344 75.9764 298.777 76.384C301.352 78.8077 305.529 82.8399 305.729 83.4432C306 84.2648 312.245 87.5516 313.06 88.0994C313.874 88.6472 319.305 91.6601 320.391 92.7557C321.477 93.8513 324.464 97.6858 325.007 98.5075C325.55 99.3292 327.45 104.259 328.265 106.451C329.749 110.444 329.126 114.867 327.674 118.872L326.619 121.779C326.09 123.239 325.358 124.618 324.444 125.874C323.378 127.34 322.079 128.622 320.598 129.668L320.489 129.744C318.456 131.18 316.139 132.162 313.693 132.625L311.334 133.071C309.592 133.401 307.823 133.566 306.05 133.566H303.939C300.076 133.566 296.226 134.006 292.463 134.876L286.318 136.296C285.504 136.484 284.672 136.579 283.837 136.579C282.162 136.579 280.51 136.961 279.005 137.695L275.575 139.37C273.817 140.228 272.365 141.603 271.412 143.312C270.765 144.471 269.885 145.484 268.826 146.285L266.374 148.14C265.46 148.831 264.596 149.587 263.789 150.401L260.114 154.109L256.111 158.525C252.992 161.966 249.61 165.16 245.995 168.077L240.022 174.103L237.035 177.938L230.562 184.709C229.994 185.303 229.329 185.796 228.595 186.166C227.2 186.87 226.071 188.007 225.377 189.407L224.997 190.173C224.696 190.779 224.46 191.415 224.29 192.07L224.042 193.031C223.301 195.895 223.232 198.89 223.812 201.791C224.139 203.418 224.436 204.94 224.545 205.601C224.817 207.245 224.545 209.984 224.274 210.805C223.636 212.734 222.101 214.208 220.913 215.855C220.729 216.111 220.574 216.351 220.472 216.557C219.929 217.653 217.486 216.557 216.4 216.557C215.313 216.557 213.413 215.462 212.87 214.914C212.327 214.366 209.34 212.449 209.34 211.901C209.34 211.353 204.724 207.519 204.181 206.149C203.638 204.78 198.479 201.493 197.665 200.397C197.227 199.809 195.133 198.2 193.174 196.764C191.495 195.533 189.54 194.74 187.486 194.395C186.312 194.198 185.118 194.151 183.932 194.257L176.486 194.919L171.171 195.951C170.022 196.173 168.938 196.648 167.995 197.34C166.973 198.089 166.139 199.069 165.615 200.222C164.839 201.93 163.997 203.992 163.997 204.78C163.997 207.774 162.979 210.741 163.61 213.668L163.692 214.05C163.895 214.989 164.179 215.91 164.589 216.779C165.191 218.056 165.971 219.528 166.44 219.844C169.816 222.114 173.449 223.996 177.472 224.597L178.659 224.774C182.075 225.291 185.044 227.395 186.665 230.447L186.813 230.726C187.699 232.393 188.162 234.252 188.162 236.14V238.937C188.162 240.075 188.382 241.203 188.809 242.257C189.93 245.02 192.369 247.03 195.294 247.612C198.122 248.175 200.926 248.741 201.466 248.877C204.088 249.539 204.226 253.304 204.457 255.999C204.542 256.985 204.634 257.828 204.724 258.19C204.743 258.266 204.766 258.362 204.793 258.477C205.711 262.447 206.471 266.8 209.34 269.693C210.155 270.515 212.598 272.706 213.413 273.254C214.064 273.692 213.684 275.993 213.413 277.089L212.759 280.827C212.654 281.428 212.39 281.99 211.995 282.455C211.344 283.221 210.39 283.662 209.385 283.662H208.88C208.113 283.662 207.359 283.467 206.689 283.095Z" fill="#FF946D"/>
<path d="M206.446 283.532C206.608 283.241 206.77 282.949 206.931 282.658C205.461 281.844 203.991 281.03 202.521 280.216L202.48 280.196C198.397 278.411 194.599 275.974 191.274 273.005C189.822 271.708 188.369 270.411 186.916 269.115C185.288 267.662 183.869 265.974 182.718 264.119C180.306 260.22 176.737 257.014 172.523 255.165C170.525 254.331 168.822 253.402 166.44 252.805C162.442 252.069 158.099 250.858 154.108 249.558C151.894 248.829 149.718 248.451 147.516 248.004C146.205 247.75 144.923 247.344 143.712 246.788C142.84 246.388 142.006 245.911 141.223 245.359C139.62 244.23 138.234 242.794 137.167 241.149C135.727 238.92 134.223 236.641 132.877 234.448C131.682 231.528 130.518 228.451 129.356 225.448C127.903 221.793 126.452 218.142 125.001 214.492L124.991 214.469C124.532 213.493 124.073 212.518 123.614 211.542C122.915 210.056 122.37 208.496 121.991 206.897C121.465 204.673 120.626 202.524 119.507 200.531C118.883 199.419 118.258 198.307 117.634 197.195L117.619 197.171C116.169 194.981 114.719 192.791 113.27 190.601L113.262 190.589C111.685 188.433 110.169 186.273 108.331 184.247C106.832 182.783 105.264 181.457 103.687 180.119L103.707 180.138C101.823 178.302 99.9395 176.466 98.0558 174.629C96.2626 172.883 94.8087 170.79 93.7985 168.499C92.6997 166.014 92.1257 163.299 92.1251 160.581C92.125 160.432 92.1249 160.283 92.1248 160.134C92.1246 159.868 92.1244 159.6 92.1242 159.333C92.1202 155.189 92.7548 151.044 93.9996 147.09L94.0049 147.072C94.9072 143.51 95.8097 139.949 96.7121 136.388L96.7005 136.424C98.5071 131.675 100.314 126.926 102.12 122.178L102.108 122.206C103.02 120.364 103.661 118.389 104.005 116.364C104.034 116.197 104.062 116.03 104.091 115.863C104.595 112.905 104.553 109.855 103.966 106.913C103.804 106.1 103.642 105.286 103.48 104.473L103.472 104.439C103.088 103.238 102.704 102.036 102.32 100.834C101.457 98.1264 99.9849 95.6154 98.0437 93.5405C97.9513 93.4416 97.859 93.3427 97.7666 93.2439C97.0122 92.4366 96.3474 91.5456 95.7882 90.5924C94.0432 87.603 91.271 85.2314 88.0491 83.9703C87.0034 83.5584 85.9577 83.1464 84.9119 82.7345C81.9548 81.5681 78.7772 80.966 75.5993 80.9694C74.2928 80.9703 72.9864 80.9712 71.6806 80.9721C67.4272 81.2526 63.2793 81.3788 59.0503 82.6632C56.4004 84.3606 53.6968 85.9092 51.3806 88.2085C48.973 90.0579 45.4989 90.5517 42.4943 91.9865C39.547 93.7491 36.5619 95.6416 33.5878 97.173C27.3789 99.2642 21.1793 101.831 14.6086 101.829C12.2733 101.83 9.93788 101.832 7.60249 101.833L7.63192 101.835C6.86875 101.739 6.10557 101.643 5.3424 101.548C2.99752 101.287 0.970899 99.3403 0.617782 97.0055C0.374009 95.5692 0.737296 94.0423 1.60244 92.8692C2.40672 91.7701 3.21101 90.671 4.01529 89.5719C4.52666 88.873 5.09675 88.2175 5.7226 87.6206C7.68649 85.7895 9.68195 83.7596 11.7446 82.2799C14.2515 81.0239 16.4952 79.504 18.8305 78.1551C22.3576 76.4083 24.8302 72.9688 25.8735 69.2418C26.0033 68.7904 26.1331 68.3391 26.2628 67.8878C27.3053 64.3286 28.4513 60.8659 29.2512 57.149C29.4806 52.0882 34.9978 49.8263 39.0087 47.5062C43.0269 45.2767 47.0452 43.0472 51.0634 40.8178C51.6135 40.5119 52.2422 40.3489 52.8718 40.3492C53.1112 40.3492 53.3512 40.3281 53.5871 40.286C58.4334 39.4445 63.3245 38.5087 68.1509 37.8758C73.7759 37.8728 79.3914 37.3128 84.974 37.8327C90.9462 38.3886 96.9184 38.9445 102.891 39.5004L102.91 39.501C107.942 39.3431 112.974 39.1852 118.006 39.0273C125.635 38.7897 133.226 37.3644 140.42 34.8185L140.41 34.8217C144.844 33.6327 149.278 32.4437 153.713 31.2548L153.729 31.2492C161.421 28.0502 169.112 24.8513 176.804 21.6524C183.484 18.3703 190.438 15.6603 197.571 13.5586C198.336 13.333 199.102 13.1074 199.868 12.8817L199.878 12.8783C206.179 10.332 212.761 8.48236 219.467 7.37397C226.554 6.20212 233.64 5.03033 240.726 3.8586C248.559 2.56272 256.527 2.45485 264.458 2.45212C270.42 2.72587 276.397 3.24667 282.378 3.54125C287.077 3.53959 291.796 3.53796 296.497 3.53635C314.33 2.7085 332.159 1.88111 349.989 1.05412C352.792 1.05334 355.598 1.05252 358.403 1.0517C361.567 1.32449 364.734 1.59748 367.902 1.87049C371.693 2.37692 375.484 2.96158 379.31 3.23695C383.833 3.23572 388.364 3.2345 392.886 3.23332C396.959 3.23225 401.031 3.2312 405.104 3.23017C410.176 2.77224 415.244 2.3145 420.312 1.8568C427.08 1.56547 433.966 0.831938 440.662 1.85C442.793 2.7387 444.99 3.55873 446.9 4.85769C448.132 6.06039 448.785 7.81256 449.062 9.49083C449.052 12.3194 447.47 14.7949 446.095 17.1822C445.998 17.3521 445.899 17.5204 445.809 17.6962C442.292 21.3156 438.492 24.7618 434.686 28.0976C432.619 29.7384 430.494 31.3482 428.709 33.3071C426.741 35.5824 424.737 37.9807 422.205 39.6004C418.682 41.6899 415.624 44.4681 412.424 47.0011C412.303 47.0985 412.18 47.1931 412.056 47.2862C409.161 49.4509 405.861 50.9904 402.538 52.3836C399.429 53.6872 396.319 54.9908 393.209 56.2944C391.009 57.2149 388.517 57.1539 386.364 58.2329C383.508 59.5804 380.647 61.0147 377.681 62.0674C375.853 63.2838 374.437 65.0344 373.056 66.7294C371.82 68.5719 370.696 70.5372 369.264 72.2034C367.713 74.1748 366.504 76.3839 365.183 78.5083C364.037 80.3555 361.902 81.5333 359.728 81.5176C358.267 81.5178 356.806 81.5179 355.345 81.5181C354.494 81.5184 353.644 81.3949 352.828 81.1528C350.679 80.5232 348.797 79.0404 347.683 77.0986C347.514 76.8075 347.346 76.5164 347.178 76.2254C346.179 74.5038 345.646 72.5164 345.648 70.5263C345.648 70.1756 345.648 69.8249 345.648 69.4744C345.687 67.0101 345.92 64.5306 345.647 62.0768C345.416 59.8102 345.557 57.4342 346.189 55.2338C346.587 52.5963 345.989 49.9154 345.646 47.2881C344.75 42.5852 342.475 38.3198 340.4 34.0518C340.328 33.9029 340.257 33.7526 340.214 33.5931C339.355 32.3006 337.842 31.648 336.545 30.8479C335.218 30.0949 333.73 29.6537 332.221 29.4558C331.761 29.3953 331.301 29.3348 330.84 29.2743C329.17 29.0521 327.438 29.3221 325.914 30.0422C324.782 30.5743 323.766 31.3499 322.954 32.3011C321.104 34.4664 319.253 36.6317 317.403 38.797C316.227 40.3492 315.05 41.9014 313.874 43.4535C312.582 44.8021 311.291 46.1508 309.999 47.4995C308.868 49.0279 307.511 50.4154 306.499 51.9998C305.193 54.0509 303.545 55.8829 301.927 57.6965C301.42 58.298 300.914 58.8995 300.407 59.501C298.397 61.9302 295.483 64.1634 295.411 67.5571C295.411 67.9144 295.411 68.2715 295.411 68.629C295.406 70.9347 296.183 73.233 297.584 75.0636C297.944 75.5357 298.344 75.9771 298.777 76.384C301.022 78.5224 303.31 80.636 305.381 82.9477C305.506 83.1012 305.651 83.2617 305.729 83.4432C307.83 85.4321 310.603 86.5794 313.06 88.0997C315.516 89.6279 318.137 90.9291 320.39 92.7564C322.049 94.5684 323.562 96.5198 325.005 98.5087C326.29 101.063 327.238 103.782 328.261 106.452C329.756 110.464 329.1 114.928 327.667 118.869C327.315 119.838 326.963 120.807 326.612 121.776C326.083 123.233 325.348 124.615 324.436 125.868C323.373 127.33 322.068 128.616 320.591 129.658C320.555 129.683 320.519 129.709 320.482 129.735C318.458 131.164 316.125 132.152 313.69 132.61C312.904 132.758 312.118 132.907 311.331 133.055C309.591 133.383 307.821 133.548 306.05 133.548C305.347 133.547 304.643 133.547 303.939 133.546C300.079 133.544 296.219 133.982 292.457 134.85C290.408 135.322 288.36 135.795 286.311 136.267C285.5 136.454 284.669 136.548 283.837 136.547C282.165 136.545 280.493 136.93 278.99 137.664C277.846 138.221 276.702 138.778 275.558 139.336C273.805 140.187 272.323 141.587 271.375 143.291C270.733 144.442 269.85 145.456 268.799 146.249C267.981 146.866 267.163 147.484 266.346 148.102C265.429 148.794 264.562 149.551 263.753 150.366C262.527 151.601 261.301 152.835 260.075 154.07C258.738 155.543 257.402 157.014 256.067 158.484C252.948 161.919 249.562 165.111 245.949 168.021C243.95 170.033 241.957 172.039 239.963 174.046C238.96 175.33 237.963 176.607 236.966 177.884C234.812 180.132 232.652 182.387 230.492 184.642C229.932 185.226 229.272 185.714 228.549 186.077C227.145 186.78 225.979 187.951 225.282 189.36C225.155 189.615 225.028 189.871 224.901 190.126C224.597 190.738 224.357 191.381 224.185 192.042C224.102 192.363 224.018 192.683 223.935 193.004C223.188 195.871 223.113 198.909 223.694 201.814C223.944 203.083 224.201 204.353 224.421 205.622C224.64 207.316 224.541 209.119 224.147 210.764C223.509 212.676 221.993 214.12 220.798 215.772C220.634 216.001 220.476 216.234 220.345 216.494C220.057 217.049 219.189 216.914 218.533 216.802C217.835 216.681 217.163 216.444 216.4 216.409C215.176 216.301 213.924 215.601 212.979 214.805C211.806 213.776 210.251 212.939 209.501 211.901C207.907 209.594 205.637 208.23 204.342 206.086C202.55 203.587 199.774 202.31 197.814 200.286C196.419 198.831 194.834 197.777 193.29 196.606C191.594 195.357 189.592 194.543 187.52 194.193C186.331 193.99 185.116 193.941 183.913 194.046C181.431 194.263 178.949 194.48 176.467 194.696L176.444 194.699C174.671 195.04 172.899 195.381 171.126 195.721C169.948 195.947 168.822 196.437 167.853 197.146C166.806 197.91 165.932 198.93 165.39 200.12C164.747 201.623 163.987 203.02 163.741 204.78C163.746 207.697 162.704 210.664 163.344 213.726C163.371 213.853 163.398 213.98 163.425 214.107C163.629 215.061 163.917 216.005 164.337 216.898C164.895 217.989 165.262 219.08 166.281 220.081C169.629 222.345 173.345 224.29 177.426 224.903C177.822 224.963 178.217 225.023 178.612 225.083C180.689 225.398 182.661 226.35 184.199 227.777C185.076 228.588 185.813 229.547 186.37 230.603C186.42 230.696 186.469 230.789 186.518 230.883C187.372 232.495 187.821 234.318 187.816 236.14C187.814 237.072 187.812 238.005 187.81 238.937C187.807 240.117 188.034 241.297 188.476 242.392C189.596 245.228 192.222 247.402 195.22 247.984C197.272 248.401 199.357 248.807 201.37 249.259C203.831 249.994 203.795 253.459 204.046 256.034C204.115 256.779 204.155 257.485 204.319 258.29C204.341 258.382 204.363 258.477 204.385 258.572C205.3 262.484 205.969 266.867 209.022 270.009C210.352 271.296 211.636 272.492 213.155 273.637C213.162 273.605 213.289 273.911 213.297 274.187C213.319 274.475 213.306 274.787 213.279 275.098C213.221 275.723 213.107 276.362 212.956 276.975L212.949 277.008C212.728 278.253 212.507 279.499 212.285 280.744C212.195 281.258 211.964 281.745 211.625 282.141C211.076 282.79 210.233 283.176 209.385 283.169C209.217 283.169 209.048 283.169 208.88 283.168C208.201 283.167 207.523 282.989 206.931 282.658C206.77 282.949 206.608 283.241 206.446 283.532C207.188 283.942 208.034 284.159 208.88 284.156C209.048 284.156 209.217 284.155 209.385 284.155C210.518 284.158 211.638 283.636 212.365 282.769C212.813 282.241 213.115 281.592 213.232 280.91C213.447 279.663 213.662 278.417 213.877 277.17L213.87 277.202C214.031 276.535 214.147 275.869 214.207 275.179C214.236 274.833 214.251 274.483 214.221 274.112C214.163 273.75 214.208 273.315 213.67 272.871C212.305 271.854 210.922 270.593 209.658 269.378C206.854 266.546 206.127 262.328 205.2 258.383C205.177 258.286 205.154 258.189 205.13 258.089C204.995 257.452 204.936 256.683 204.868 255.963C204.748 254.604 204.668 253.205 204.314 251.818C203.991 250.483 203.174 248.861 201.562 248.496C199.479 248.038 197.433 247.651 195.368 247.241C192.613 246.719 190.187 244.732 189.142 242.122C188.731 241.115 188.516 240.027 188.514 238.937C188.512 238.005 188.51 237.072 188.508 236.14C188.505 234.205 188.02 232.274 187.108 230.569C187.059 230.476 187.009 230.383 186.959 230.29C186.362 229.171 185.575 228.154 184.64 227.298C183.002 225.79 180.906 224.79 178.705 224.466C178.309 224.407 177.913 224.349 177.518 224.291C173.569 223.714 169.922 221.836 166.6 219.607C165.896 218.921 165.354 217.699 164.841 216.66C164.44 215.816 164.16 214.914 163.959 213.992C163.932 213.865 163.904 213.738 163.876 213.611C163.253 210.753 164.255 207.811 164.252 204.78C164.449 203.325 165.209 201.781 165.839 200.324C166.339 199.216 167.152 198.256 168.137 197.533C169.046 196.862 170.105 196.397 171.215 196.18C172.986 195.833 174.758 195.486 176.529 195.139L176.506 195.143C178.988 194.917 181.469 194.692 183.951 194.467C185.117 194.361 186.297 194.405 187.452 194.598C189.466 194.931 191.411 195.715 193.059 196.921C194.588 198.067 196.236 199.186 197.516 200.508C199.603 202.637 202.395 203.974 204.021 206.213C205.428 208.497 207.764 210.052 209.179 211.901C210.154 213.438 211.63 213.986 212.76 215.022C213.818 215.895 214.993 216.572 216.4 216.706C217.067 216.732 217.771 216.965 218.481 217.088C218.837 217.151 219.202 217.205 219.582 217.183C219.947 217.167 220.412 217.024 220.6 216.621C220.717 216.386 220.869 216.159 221.028 215.938C222.195 214.309 223.735 212.846 224.4 210.847C224.811 209.103 224.898 207.345 224.67 205.581C224.445 204.301 224.185 203.037 223.931 201.767C223.351 198.897 223.416 195.896 224.148 193.059C224.231 192.738 224.313 192.418 224.396 192.097C224.562 191.45 224.796 190.82 225.092 190.221C225.219 189.965 225.345 189.709 225.471 189.454C226.145 188.083 227.275 186.943 228.64 186.256C229.382 185.881 230.059 185.378 230.633 184.776C232.788 182.517 234.943 180.257 237.098 177.998C238.098 176.712 239.092 175.433 240.086 174.153C242.069 172.15 244.058 170.14 246.047 168.129C249.654 165.213 253.039 162.01 256.156 158.565C257.489 157.092 258.822 155.619 260.154 154.145C261.377 152.91 262.601 151.674 263.825 150.437C264.629 149.624 265.491 148.868 266.403 148.178C267.22 147.559 268.037 146.94 268.853 146.321C269.913 145.519 270.803 144.494 271.449 143.332C272.386 141.642 273.853 140.251 275.592 139.404C276.735 138.845 277.878 138.286 279.021 137.727C280.513 136.996 282.174 136.611 283.837 136.611C284.673 136.611 285.51 136.515 286.325 136.326C288.373 135.851 290.421 135.376 292.469 134.901C296.226 134.03 300.082 133.588 303.939 133.586C304.643 133.586 305.347 133.586 306.05 133.585C307.823 133.584 309.596 133.417 311.337 133.087C312.123 132.938 312.91 132.789 313.696 132.64C316.134 132.179 318.471 131.188 320.496 129.754C320.532 129.729 320.569 129.703 320.605 129.677C322.083 128.633 323.389 127.345 324.452 125.88C325.364 124.624 326.099 123.24 326.627 121.782C326.978 120.813 327.329 119.843 327.68 118.874C329.112 114.93 329.766 110.463 328.268 106.449C327.244 103.78 326.295 101.061 325.008 98.5063C323.565 96.5174 322.051 94.5668 320.392 92.7549C318.138 90.9276 315.517 89.6272 313.06 88.0992C310.603 86.5792 307.83 85.4321 305.729 83.4432C305.651 83.2617 305.506 83.1012 305.381 82.9477C303.31 80.636 301.022 78.5224 298.777 76.3839C298.344 75.9771 297.945 75.5356 297.585 75.0635C296.183 73.2329 295.406 70.9347 295.411 68.629C295.411 68.2715 295.411 67.9144 295.411 67.5571C295.483 64.1637 298.397 61.9306 300.407 59.5014C300.914 58.9 301.421 58.2985 301.928 57.6971C303.546 55.8833 305.194 54.0519 306.501 52.0002C307.512 50.4167 308.869 49.0287 310.001 47.5005C311.292 46.152 312.584 44.8034 313.875 43.4548C315.052 41.9027 316.228 40.3507 317.405 38.7986C319.255 36.6336 321.106 34.4684 322.956 32.3033C323.768 31.3525 324.784 30.5773 325.915 30.0456C327.439 29.326 329.17 29.0564 330.84 29.2786C331.3 29.3392 331.76 29.3997 332.22 29.4603C333.729 29.6583 335.216 30.0996 336.543 30.8524C337.839 31.6516 339.354 32.308 340.209 33.5945C340.251 33.755 340.323 33.9052 340.394 34.0543C342.47 38.3227 344.743 42.5881 345.638 47.2894C345.981 49.9151 346.577 52.6014 346.181 55.2297C345.547 57.437 345.405 59.8042 345.637 62.0815C345.908 64.5258 345.676 67.0107 345.636 69.4744C345.636 69.8249 345.636 70.1756 345.636 70.5263C345.633 72.5186 346.167 74.5082 347.166 76.232C347.334 76.5231 347.503 76.8143 347.671 77.1054C348.787 79.0504 350.672 80.536 352.824 81.1672C353.641 81.4098 354.493 81.5337 355.345 81.5336C356.806 81.5338 358.267 81.534 359.728 81.5341C361.908 81.5504 364.049 80.3701 365.199 78.5178C366.514 76.3966 367.747 74.1754 369.264 72.2233C370.731 70.5397 371.833 68.586 373.074 66.7414C374.447 65.0534 375.887 63.293 377.681 62.0909C380.667 61.0349 383.515 59.6042 386.375 58.2563C388.521 57.1812 391.011 57.2428 393.22 56.3205C396.33 55.0179 399.441 53.7152 402.551 52.4126C405.875 51.0202 409.177 49.4809 412.077 47.3142C412.201 47.221 412.325 47.1263 412.446 47.0285C415.643 44.4984 418.719 41.7135 422.215 39.6387C424.783 38.0008 426.765 35.6162 428.743 33.3327C430.518 31.3871 432.65 29.771 434.713 28.1341C438.531 24.7897 442.313 21.3685 445.855 17.7193C445.943 17.5471 446.043 17.3776 446.14 17.2084C447.515 14.8225 449.105 12.3418 449.118 9.49083C448.834 7.77744 448.194 6.04754 446.935 4.81147C445.01 3.50171 442.818 2.6845 440.684 1.79341C433.945 0.762967 427.084 1.49976 420.307 1.78654C415.238 2.24189 410.169 2.69713 405.101 3.15235C401.031 3.15116 396.959 3.15011 392.886 3.14904C388.364 3.14786 383.833 3.14664 379.31 3.14541C375.506 2.86913 371.702 2.28183 367.913 1.77321C364.743 1.49812 361.575 1.22331 358.408 0.948491C355.598 0.947483 352.792 0.946659 349.986 0.945824C332.154 1.76227 314.324 2.57827 296.494 3.39388C291.796 3.3922 287.077 3.39057 282.378 3.38891C276.415 3.09069 270.439 2.56559 264.458 2.28685C256.526 2.28387 248.548 2.38514 240.696 3.67782C233.609 4.84406 226.522 6.01024 219.435 7.17637C212.713 8.28171 206.114 10.13 199.796 12.6769L199.806 12.6734C199.04 12.8984 198.275 13.1234 197.509 13.3484C190.362 15.4475 183.394 18.1561 176.705 21.4353C169.018 24.6243 161.323 27.8163 153.629 31.0082L153.645 31.0027C149.21 32.1875 144.775 33.3723 140.339 34.5571L140.329 34.5603C133.159 37.09 125.596 38.5024 117.997 38.7316C112.965 38.8845 107.933 39.0374 102.9 39.1903L102.92 39.1909C96.948 38.6289 90.9763 38.0669 85.0047 37.5048C79.3804 36.976 73.7529 37.5326 68.1509 37.5287C63.2077 38.1656 58.3897 39.0909 53.5236 39.9286C53.3085 39.9667 53.0904 39.9857 52.8718 39.9855C52.1808 39.9844 51.4905 40.1625 50.8861 40.4978C46.8654 42.7228 42.8447 44.9478 38.824 47.1728C34.8439 49.5038 29.1616 51.6889 28.8536 57.149C28.079 60.6449 26.9116 64.2468 25.8693 67.7715C25.7383 68.2254 25.608 68.6765 25.4777 69.1277C24.4529 72.7679 22.049 76.0911 18.6389 77.7753C16.2647 79.1449 13.9581 80.6837 11.6059 81.8675C9.23685 83.5172 7.43024 85.442 5.41573 87.2985C4.76915 87.9137 4.18088 88.5886 3.65386 89.3071C2.84825 90.4052 2.04263 91.5033 1.23701 92.6014C0.298881 93.8703 -0.0968942 95.5235 0.165344 97.0803C0.544997 99.6108 2.73898 101.726 5.28391 102.011C6.04696 102.108 6.81001 102.205 7.57307 102.302L7.60249 102.303C9.93788 102.305 12.2733 102.306 14.6086 102.308C21.3055 102.315 27.5587 99.7235 33.7485 97.6508C36.9134 96.0387 39.7831 94.2012 42.7622 92.4292C45.612 91.0501 49.0011 90.6947 51.7961 88.5381C53.9281 86.4282 56.7239 84.7836 59.3314 83.1275C63.1473 81.9991 67.5726 81.7808 71.6806 81.5318C72.9864 81.5327 74.2928 81.5336 75.5993 81.5345C78.7064 81.5354 81.8116 82.1283 84.6997 83.272C85.7449 83.6854 86.7901 84.0988 87.8352 84.5122C90.9351 85.7304 93.5991 88.0166 95.2734 90.894C95.8533 91.8859 96.5434 92.8134 97.3268 93.6541C97.4191 93.7531 97.5113 93.8521 97.6035 93.9511C99.4813 95.9639 100.904 98.3978 101.735 101.021C102.117 102.223 102.5 103.425 102.882 104.627L102.873 104.593C103.034 105.407 103.194 106.221 103.355 107.034C103.923 109.903 103.96 112.875 103.464 115.755C103.436 115.923 103.407 116.09 103.378 116.257C103.041 118.221 102.417 120.135 101.53 121.919L101.518 121.948C99.7042 126.694 97.8906 131.44 96.077 136.186L96.0654 136.223C95.1577 139.783 94.25 143.343 93.3423 146.903L93.3476 146.885C92.0759 150.903 91.424 155.117 91.4217 159.333C91.4215 159.6 91.4213 159.868 91.4211 160.134C91.421 160.283 91.4209 160.432 91.4207 160.581C91.4171 163.396 92.0074 166.211 93.1423 168.788C94.1858 171.164 95.6897 173.337 97.5467 175.151C99.4276 176.99 101.308 178.829 103.189 180.668L103.21 180.686C104.771 182.014 106.353 183.358 107.797 184.776C109.528 186.688 111.089 188.9 112.641 191.033L112.633 191.021C114.079 193.214 115.526 195.406 116.972 197.598L116.957 197.574C117.58 198.687 118.202 199.8 118.825 200.913C119.905 202.844 120.714 204.926 121.219 207.079C121.608 208.732 122.169 210.345 122.889 211.883C123.347 212.859 123.804 213.835 124.262 214.811L124.252 214.789C125.697 218.442 127.142 222.095 128.587 225.748C129.753 228.771 130.872 231.76 132.124 234.821C133.558 237.18 134.999 239.356 136.449 241.613C137.573 243.352 139.034 244.871 140.724 246.065C141.55 246.65 142.431 247.155 143.348 247.578C144.625 248.167 145.972 248.595 147.348 248.864C149.52 249.306 151.765 249.715 153.793 250.388C157.979 251.747 161.983 252.915 166.44 253.715C168.147 254.194 170.258 255.189 172.151 256.007C176.183 257.786 179.604 260.865 181.915 264.617C183.11 266.55 184.585 268.311 186.279 269.828C187.729 271.127 189.18 272.426 190.63 273.725C194.025 276.768 197.906 279.269 202.082 281.103L202.04 281.083C203.509 281.899 204.977 282.716 206.446 283.532ZM206.931 282.658L206.446 283.532L206.931 282.658Z" fill="#FF946D"/>
</svg>
