<svg width="545" height="337" viewBox="0 0 545 337" fill="none" xmlns="http://www.w3.org/2000/svg">
<path d="M0.360909 127.217C0.360909 127.282 0.536194 127.815 0.808753 128.603C2.38826 133.175 5.78282 136.887 10.1358 138.994C11.6744 139.542 14.8602 140.638 15.2946 140.638H15.367C20.0087 140.638 24.7424 140.474 29.142 138.994C32.3017 137.932 34.4956 134.996 37.5258 133.606L38.3832 133.213C40.72 132.142 42.9073 130.771 44.89 129.134C46.9717 127.673 51.2435 124.642 51.678 124.204C52.221 123.656 57.6513 121.191 58.7374 120.096C59.8235 119 63.6247 118.452 64.9823 117.63C66.0684 116.973 69.2361 117.904 70.6842 118.452L81.2734 121.191C85.4366 122.561 94.1433 125.464 95.6638 126.121C97.5644 126.943 101.637 127.491 104.081 128.039C106.525 128.586 112.226 129.134 113.584 129.134C114.942 129.134 121.458 129.682 123.359 129.956C125.259 130.23 126.617 131.325 127.431 132.147C128.246 132.969 129.06 135.434 129.875 136.803C130.69 138.173 130.69 140.09 130.961 141.733C131.233 143.377 132.59 147.211 133.405 147.759C134.056 148.197 137.84 149.768 139.65 150.498C142.365 151.229 147.958 152.744 148.61 152.963C149.424 153.237 152.954 154.607 154.583 155.154C156.212 155.702 157.027 158.989 157.027 160.085C157.027 161.18 155.941 163.371 155.398 164.193C154.855 165.015 152.139 166.658 151.325 167.754C150.51 168.849 150.239 171.04 150.239 172.41C150.239 173.779 151.325 176.792 152.139 178.162C152.954 179.531 155.941 183.914 157.027 185.557C157.896 186.872 161.371 190.852 163 192.678C164.539 194.778 167.67 199.033 167.887 199.252C168.105 199.471 170.693 205.004 171.96 207.743L173.998 211.764C176.792 217.28 180.245 222.437 184.28 227.121L185.59 228.642C190.228 234.028 195.929 238.287 201.827 242.254C202.003 242.372 202.513 242.533 203.214 242.714C207.738 243.882 212.519 243.119 216.761 241.158L217.575 240.763C218.831 240.3 219.991 239.608 220.994 238.722L223.82 236.228L226.721 233.667C227.675 232.825 228.467 231.816 229.059 230.689C230.067 228.769 230.452 226.583 230.161 224.434L229.977 223.068C229.855 222.165 229.65 221.277 229.364 220.412L228.884 218.958C228.406 217.514 227.73 216.144 226.873 214.887C225.752 213.242 224.34 211.816 222.706 210.68L217.304 206.921L213.987 204.319C212.947 203.503 212.045 202.524 211.316 201.421C210.606 200.347 210.069 199.168 209.724 197.927L209.622 197.559C208.793 194.57 208.06 190.773 210.244 188.57C212.355 186.441 215.417 185.557 218.415 185.557H218.849C220.52 185.557 222.178 185.858 223.742 186.445L233.052 189.939L246.628 197.061L246.82 197.185C257.698 204.201 267.745 212.429 276.766 221.712L276.931 221.926C283.147 229.988 288.72 238.524 293.6 247.458C295.41 252.114 299.085 261.591 299.302 262.248C299.573 263.07 303.375 267.726 304.189 268.548C305.004 269.37 307.447 269.37 307.991 269.37C308.232 269.37 309.548 268.693 310.995 267.903C313.149 266.728 315.318 265.269 316.408 263.07C316.679 262.522 319.123 257.318 319.394 256.496C320.309 253.727 319.451 250.691 318.507 247.931L317.77 245.773C317.407 244.711 316.887 243.709 316.226 242.801C314.928 241.015 314.171 238.886 314.13 236.678C314.099 235.013 314.11 233.468 314.235 233.215C314.507 232.667 315.322 228.559 315.593 228.011L316.141 226.906C317.213 224.742 318.701 222.811 320.519 221.222C321.396 220.454 322.345 219.773 323.349 219.181C325.074 218.163 327.104 216.947 327.268 216.781C327.54 216.507 329.44 215.138 329.983 214.59C330.526 214.042 333.242 213.768 333.785 213.495C334.01 213.381 334.779 213.361 335.632 213.38C337.114 213.414 338.577 213.693 340.006 214.086C342.538 214.782 344.934 215.901 347.088 217.403C349.789 219.285 352.64 221.286 352.791 221.438C355.873 224.546 359.273 227.326 361.885 230.839L362.123 231.159C364.76 234.706 366.937 238.575 368.6 242.671L375.327 259.235L378.569 269.048C380.744 275.629 383.707 281.923 387.395 287.792C391.816 294.829 397.235 301.186 403.482 306.666L406.551 309.359L416.326 317.302C422.299 320.954 434.355 328.258 434.789 328.258C435.332 328.258 445.65 331.271 447.551 332.092C449.451 332.914 458.14 335.379 459.226 336.201C459.956 336.753 468.289 336.57 474.313 336.335C476.381 336.254 478.947 336.848 480.404 335.379C480.676 335.105 482.305 332.366 482.305 332.092C482.305 329.62 480.611 327.459 478.579 326.05L477.417 325.245L467.1 319.767L451.623 312.098C443.682 308.639 436.143 304.324 429.138 299.229L428.001 298.403C425.648 296.12 420.833 291.501 420.399 291.281C419.856 291.008 418.498 287.447 418.227 287.173C417.955 286.899 416.869 283.065 415.783 282.243C413.652 280.631 415.24 277.064 415.24 274.392V268.548C415.24 265.802 416.869 263.275 416.869 260.529V257.592C416.869 257.318 417.412 251.84 417.412 251.292C417.412 250.745 416.598 245.541 416.326 244.993C416.055 244.445 413.882 239.515 413.611 239.241C413.419 239.047 410.944 235.55 409.311 233.229C408.919 232.673 408.581 232.082 408.298 231.464C407.509 229.738 407.173 227.84 407.323 225.949L407.343 225.704C407.535 223.281 408.45 220.97 409.985 219.085C410.722 218.179 411.334 217.435 411.439 217.329C411.71 217.055 416.326 214.59 416.869 214.316C417.176 214.161 421.4 211.071 425.286 208.21C428.181 206.078 430.901 203.722 433.432 201.169C433.703 200.895 435.061 195.965 435.061 195.417V188.844V181.996C435.694 177.431 436.961 168.192 436.961 167.754C436.961 167.206 439.133 161.728 439.405 161.18C439.677 160.632 442.663 157.072 442.663 156.798C442.663 156.579 447.913 150.863 450.537 148.033C452.619 145.568 456.836 140.638 457.054 140.638C457.204 140.638 458.914 138.289 460.525 136.023C461.834 134.183 462.882 132.171 463.669 130.054C464.504 127.808 465.034 125.459 465.242 123.071L465.558 119.457C465.68 118.064 465.604 116.66 465.332 115.288C465.064 113.935 464.608 112.626 463.977 111.399L461.126 105.853C460.402 104.209 458.9 100.868 458.683 100.649C455.905 97.8465 456.388 93.1204 456.673 89.1848L457.054 83.9411C457.235 81.476 457.597 76.4363 457.597 75.9981C457.597 75.4503 459.497 72.1635 460.04 71.6157C460.583 71.0679 462.756 69.6984 463.027 69.4245C463.299 69.1506 472.259 68.6028 473.345 68.8767C474.431 69.1506 481.49 71.8896 482.576 72.1635C483.662 72.4374 486.921 77.6414 487.735 79.2848C488.114 80.0496 489.124 81.5928 490.134 83.0736C491.406 84.937 492.953 86.5927 494.68 88.0443L499.267 91.9007C500.943 93.3092 503.044 94.1117 505.232 94.1786C508.689 94.2842 511.912 92.5256 513.813 89.6364C514.091 89.2147 514.287 88.9288 514.344 88.8712C514.615 88.5973 516.788 82.2977 517.059 81.476C517.276 80.8186 518.96 77.3675 519.774 75.7242C521.765 72.3461 525.802 65.5352 526.019 65.316C526.291 65.0422 532.807 56.0035 533.622 55.4557C534.436 54.9079 538.78 51.8951 539.595 51.3473C539.828 51.1909 540.159 50.8903 540.519 50.5351C541.758 49.3102 542.644 47.7844 543.299 46.1699L543.518 45.6292C544.33 43.6276 544.648 41.4599 544.445 39.3095C544.29 37.6709 543.836 36.0746 543.105 34.5999L542.762 33.9081C541.923 32.2155 540.844 30.6391 539.428 29.3881C538.762 28.7991 538.174 28.3399 537.966 28.3399C529.924 28.3399 523.003 22.3964 515.012 21.4896L483.662 17.9318L441.306 14.645L412.796 12.1799L370.168 7.52368L335.957 3.41522L315.322 1.77183L292.786 0.128433C286.903 0.0371335 274.702 -0.0906853 272.965 0.128433C266.148 0.988058 259.282 1.49263 252.605 3.11269L241.197 5.88028L207.801 17.1101C203.818 18.5709 195.745 21.5472 195.311 21.7663C194.768 22.0402 179.291 27.2443 178.205 27.7921C177.336 28.2303 171.689 28.8877 168.974 29.1616L114.399 28.6138H104.895C104.244 28.6138 99.7366 28.979 97.5644 29.1616L90.033 29.8921C85.6556 30.3167 81.3141 31.1662 77.2006 32.7222C75.0285 33.5439 68.7836 36.2829 67.426 36.5568C66.0684 36.8307 62.2671 39.0219 60.638 40.1175C59.3348 40.9939 57.9229 42.3086 57.3798 42.8564L50.8414 48.9025C48.6986 50.884 47.0422 53.2948 45.4331 55.7296C44.89 56.5513 42.4464 60.9337 41.9033 62.5771C41.3603 64.2205 40.5457 66.9594 40.2742 68.055C40.1375 68.6068 38.9176 71.6477 37.6712 74.6907C36.3456 77.9273 35.5241 81.332 34.8439 84.7628C34.5724 86.1322 32.4002 90.7885 32.1287 91.8841C31.8572 92.9797 28.8705 96.5404 28.3275 97.362C27.893 98.0194 25.0692 100.192 23.7117 101.197C19.0053 104.666 9.42983 111.714 8.77819 112.153C7.96364 112.7 4.16239 115.987 3.3476 116.809C2.53281 117.63 0.632426 121.191 0.360909 121.739C0.0893913 122.287 0.360909 126.943 0.360909 127.217Z" fill="#212832" fill-opacity="0.7"/>
</svg>
