<svg width="450" height="283" viewBox="0 0 450 283" fill="none" xmlns="http://www.w3.org/2000/svg">
<path d="M206.689 282.095L202.281 279.649C198.143 277.835 194.32 275.376 190.952 272.365L186.597 268.471C184.934 266.984 183.492 265.265 182.317 263.368C179.93 259.515 176.482 256.418 172.337 254.586C169.504 253.334 166.924 252.26 166.44 252.26C165.354 252.26 156.123 249.795 153.95 248.973C152.813 248.543 149.986 247.933 147.432 247.434C145.113 246.982 142.903 246.075 140.974 244.712C139.322 243.546 137.907 242.077 136.808 240.381C134.903 237.441 132.665 233.965 132.501 233.635C132.283 233.196 130.057 227.426 128.971 224.596L124.627 213.64L123.252 210.712C122.541 209.199 121.989 207.616 121.605 205.988C121.088 203.796 120.267 201.687 119.166 199.722L117.296 196.385L112.951 189.811C111.775 188.168 109.15 184.607 108.064 183.511C106.978 182.416 104.534 180.316 103.448 179.403L97.8012 173.89C95.9715 172.104 94.5013 169.983 93.4704 167.643C92.351 165.103 91.7729 162.357 91.7729 159.581V159.134V158.333C91.7729 154.146 92.4139 149.981 93.6736 145.987L96.3887 135.305L101.819 121.063C102.719 119.246 103.35 117.309 103.692 115.31L103.777 114.809C104.278 111.882 104.238 108.887 103.661 105.974L103.177 103.533L102.028 99.9276C101.175 97.252 99.7393 94.7991 97.8236 92.7458L97.5467 92.449C96.7771 91.6241 96.101 90.7167 95.5308 89.7432C93.7997 86.7881 91.1278 84.4987 87.9422 83.2413L84.8058 82.0033C81.8744 80.8461 78.7509 80.252 75.5993 80.252H71.6806C70.0515 80.252 60.5484 81.0737 59.1908 81.8954C57.8332 82.717 52.6744 86.0038 51.5883 87.3733C50.5023 88.7428 43.9858 90.3862 42.6283 91.2079C41.2707 92.0296 34.4827 96.138 33.6682 96.4119C27.3845 98.5248 21.238 101.068 14.6086 101.068H7.60249L5.31315 100.78C2.80542 100.463 0.803583 98.5367 0.391563 96.0429C0.14114 94.5272 0.511745 92.9745 1.41973 91.7353L3.83458 88.4395C4.35444 87.73 4.93233 87.0662 5.56916 86.4595C7.80065 84.3335 11.1118 81.2631 11.6753 81.0737C12.4898 80.7998 18.1917 77.2391 18.7347 76.9652C22.2516 75.1914 24.585 71.9696 25.6756 68.1847L26.0657 66.831C27.0613 63.5442 29.0524 56.8063 29.0524 56.149C29.0524 51.3951 34.7582 48.6436 38.9163 46.3395L50.9747 39.6578C51.5553 39.3361 52.2081 39.1673 52.8718 39.1673C53.1018 39.1673 53.3289 39.1475 53.5553 39.1073C58.2785 38.2683 67.3027 36.7023 68.1509 36.7023C73.7749 36.7023 79.3898 36.1447 84.9893 36.6688L102.905 38.3456L118.002 37.8795C125.631 37.6439 133.177 36.2305 140.375 33.6894L153.679 30.1287L176.758 20.5423C183.443 17.2615 190.396 14.5555 197.54 12.4535L199.837 11.7776C206.153 9.22897 212.731 7.3837 219.451 6.27517L240.711 2.76821C248.555 1.47434 256.508 1.36949 264.458 1.36949C266.087 1.36949 281.021 2.46508 282.378 2.46508H296.497L349.986 0H358.403L367.906 0.821703C371.165 1.2782 378.007 2.19118 379.31 2.19118H392.886H405.104L420.309 0.821703C426.192 0.456507 438.501 -0.0547686 440.673 0.821703C443.388 1.91729 445.832 3.01288 446.918 3.83458C448.004 4.65627 449.09 7.66914 449.09 8.49083C449.09 11.2697 447.51 13.7905 446.118 16.1953C445.979 16.4351 445.877 16.6161 445.832 16.7078C445.56 17.2556 435.786 26.2942 434.7 27.1159C433.614 27.9376 429.541 31.2243 428.726 32.3199C427.912 33.4155 423.296 38.3457 422.21 38.6196C421.124 38.8935 413.793 44.9192 412.435 46.0148C412.327 46.1025 412.203 46.1982 412.066 46.3002C409.174 48.4622 405.875 50.0026 402.545 51.3981L393.215 55.3074C391.026 56.2245 388.488 56.176 386.37 57.2446C385.283 57.7924 378.224 61.0792 377.681 61.0792C377.138 61.0792 373.608 64.9137 373.065 65.7354C372.522 66.5571 369.535 71.2134 369.264 71.2134C369.047 71.2134 366.458 75.4131 365.191 77.513C364.008 79.3884 361.946 80.5259 359.728 80.5259H355.345C354.492 80.5259 353.644 80.4026 352.826 80.16C350.654 79.5155 348.811 78.0633 347.677 76.102L347.172 75.2287C346.17 73.4955 345.642 71.5285 345.642 69.5263V68.4744C345.642 67.9266 345.913 61.6269 345.642 61.0792C345.37 60.5314 345.642 55.3273 346.185 54.2317C346.619 53.3552 346.004 48.5712 345.642 46.2887C344.747 41.5934 342.488 37.3512 340.397 33.053C340.303 32.8597 340.239 32.7034 340.212 32.5938C340.061 31.9857 338.246 30.815 336.544 29.8501C335.214 29.0965 333.736 28.6574 332.221 28.4581L330.84 28.2764C329.159 28.0552 327.449 28.3216 325.915 29.0439C324.779 29.5784 323.77 30.3482 322.955 31.3022L317.404 37.7979L313.874 42.4541L310 46.5C306.5 51 306.717 50.3426 306.5 51C306.283 51.6574 302.652 55.9664 301.928 56.6968L300.407 58.5012C298.348 60.9455 295.411 63.3608 295.411 66.5571V67.629C295.411 69.954 296.175 72.2147 297.585 74.0635C297.945 74.5364 298.344 74.9764 298.777 75.384C301.352 77.8077 305.529 81.8399 305.729 82.4432C306 83.2648 312.245 86.5516 313.06 87.0994C313.874 87.6472 319.305 90.6601 320.391 91.7557C321.477 92.8513 324.464 96.6858 325.007 97.5075C325.55 98.3292 327.45 103.259 328.265 105.451C329.749 109.444 329.126 113.867 327.674 117.872L326.619 120.779C326.09 122.239 325.358 123.618 324.444 124.874C323.378 126.34 322.079 127.622 320.598 128.668L320.489 128.744C318.456 130.18 316.139 131.162 313.693 131.625L311.334 132.071C309.592 132.401 307.823 132.566 306.05 132.566H303.939C300.076 132.566 296.226 133.006 292.463 133.876L286.318 135.296C285.504 135.484 284.672 135.579 283.837 135.579C282.162 135.579 280.51 135.961 279.005 136.695L275.575 138.37C273.817 139.228 272.365 140.603 271.412 142.312C270.765 143.471 269.885 144.484 268.826 145.285L266.374 147.14C265.46 147.831 264.596 148.587 263.789 149.401L260.114 153.109L256.111 157.525C252.992 160.966 249.61 164.16 245.995 167.077L240.022 173.103L237.035 176.938L230.562 183.709C229.994 184.303 229.329 184.796 228.595 185.166C227.2 185.87 226.071 187.007 225.377 188.407L224.997 189.173C224.696 189.779 224.46 190.415 224.29 191.07L224.042 192.031C223.301 194.895 223.232 197.89 223.812 200.791C224.139 202.418 224.436 203.94 224.545 204.601C224.817 206.245 224.545 208.984 224.274 209.805C223.636 211.734 222.101 213.208 220.913 214.855C220.729 215.111 220.574 215.351 220.472 215.557C219.929 216.653 217.486 215.557 216.4 215.557C215.313 215.557 213.413 214.462 212.87 213.914C212.327 213.366 209.34 211.449 209.34 210.901C209.34 210.353 204.724 206.519 204.181 205.149C203.638 203.78 198.479 200.493 197.665 199.397C197.227 198.809 195.133 197.2 193.174 195.764C191.495 194.533 189.54 193.74 187.486 193.395C186.312 193.198 185.118 193.151 183.932 193.257L176.486 193.919L171.171 194.951C170.022 195.173 168.938 195.648 167.995 196.34C166.973 197.089 166.139 198.069 165.615 199.222C164.839 200.93 163.997 202.992 163.997 203.78C163.997 206.774 162.979 209.741 163.61 212.668L163.692 213.05C163.895 213.989 164.179 214.91 164.589 215.779C165.191 217.056 165.971 218.528 166.44 218.844C169.816 221.114 173.449 222.996 177.472 223.597L178.659 223.774C182.075 224.291 185.044 226.395 186.665 229.447L186.813 229.726C187.699 231.393 188.162 233.252 188.162 235.14V237.937C188.162 239.075 188.382 240.203 188.809 241.257C189.93 244.02 192.369 246.03 195.294 246.612C198.122 247.175 200.926 247.741 201.466 247.877C204.088 248.539 204.226 252.304 204.457 254.999C204.542 255.985 204.634 256.828 204.724 257.19C204.743 257.266 204.766 257.362 204.793 257.477C205.711 261.447 206.471 265.8 209.34 268.693C210.155 269.515 212.598 271.706 213.413 272.254C214.064 272.692 213.684 274.993 213.413 276.089L212.759 279.827C212.654 280.428 212.39 280.99 211.995 281.455C211.344 282.221 210.39 282.662 209.385 282.662H208.88C208.113 282.662 207.359 282.467 206.689 282.095Z" fill="#212832" fill-opacity="0.7"/>
</svg>
