<svg width="163" height="279" viewBox="0 0 163 279" fill="none" xmlns="http://www.w3.org/2000/svg">
<path d="M17.4592 13.3313L15.0155 21.8221C14.563 24.7437 13.6579 30.7512 13.6579 31.4085C13.6579 32.2302 11.2143 37.7082 10.9427 38.5299C10.6712 39.3516 7.68452 43.7339 7.41301 44.5556C7.14149 45.3773 4.1548 49.4858 3.34024 50.0336C2.52569 50.5814 1.43962 54.4159 1.43962 54.9637C1.43962 57.987 0.250186 60.9067 0.57407 63.9125L1.08376 68.6428C1.32061 70.8409 1.72515 73.0192 2.34939 75.1402C2.72938 76.4312 3.11362 77.6735 3.34024 78.245C3.88328 79.6145 9.58515 88.6531 10.1282 89.4748C13.1581 94.0596 16.6528 98.3191 20.4501 102.292L29.4059 111.661C32.2116 114.673 37.9859 120.918 38.6375 121.795C39.4521 122.89 41.6242 127.273 42.1673 128.916C42.7103 130.559 44.0679 134.668 44.0679 136.311V145.35C44.0679 145.788 42.0768 152.289 41.0812 155.484C40.6287 156.762 39.615 159.538 39.1806 160.414C38.6375 161.51 37.823 176.3 37.823 177.122V190.543L39.7236 210.811C39.9951 213.185 40.6468 218.097 41.0812 218.754C41.6242 219.576 42.9818 225.876 43.5248 226.697C44.0679 227.519 46.5115 236.01 46.7831 236.01C47.0546 236.01 51.3989 246.692 51.9419 247.514C56.0259 253.693 60.2817 259.761 65.4964 265.022L69.319 268.878C70.6766 270.43 73.3918 273.698 73.3918 274.356C73.3918 275.177 78.5506 277.369 79.9082 278.19C81.2658 279.012 84.7955 278.19 85.6101 278.19C86.4246 278.19 89.1398 277.369 89.6828 277.369C90.2259 277.369 92.6695 274.903 92.9411 274.356C93.2126 273.808 92.1265 270.795 91.5835 269.973C89.7196 267.153 86.2612 265.805 83.7792 263.51L80.9943 260.935C78.4921 259.132 76.365 256.818 75.075 254.017C74.5753 252.932 74.2063 251.999 74.2063 251.622C74.2063 250.527 73.3918 245.323 73.3918 244.227V236.01C73.3918 234.641 73.1203 230.258 73.3918 229.436C73.6633 228.615 74.2063 223.411 74.2063 222.315C74.2063 221.439 75.6544 219.028 76.3785 217.933L80.1797 210.811L80.6789 209.972C81.9711 207.8 83.5037 205.779 85.2478 203.95L86.2644 202.883C88.3458 200.699 90.7986 198.903 93.5085 197.578C96.7146 196.01 99.5553 193.785 101.846 191.048L105.808 186.316C107.725 184.025 109.451 181.581 110.968 179.007L114.662 172.74L120.444 162.62C122.738 158.604 125.441 154.836 128.51 151.376C130.954 149.093 136.221 144.364 137.741 143.707C139.642 142.885 142.357 141.515 144.529 140.146C146.702 138.776 146.973 137.133 147.245 136.585C147.516 136.037 148.331 132.751 148.602 131.929C148.874 131.107 149.145 127.82 149.145 126.999C149.145 126.341 149.507 123.986 149.688 122.89L151.589 112.482L152.786 108.759C154.157 104.495 157.834 100.802 157.834 96.3223C157.834 96.1721 158.11 95.6319 158.52 94.9131C160.295 91.8052 161.685 88.4815 162.309 84.9574L162.336 84.8038C162.592 83.3557 162.721 81.8878 162.721 80.4171V78.2335C162.721 75.192 161.911 72.2054 160.373 69.581C159.589 68.2419 158.629 67.0143 157.505 65.9445C155.115 63.6703 152.004 60.7883 151.317 60.4417C150.231 59.8939 145.072 59.3461 142.629 59.3461C134.568 59.3461 126.918 55.9016 120.229 51.4032L119.007 50.5814C116.835 48.6641 112.327 44.6652 111.676 44.0078L106.724 39.0129C105.864 38.1447 105.091 37.1945 104.417 36.1747C103.291 34.4697 101.89 32.9621 100.273 31.7126L94.8903 27.5533C91.6086 25.0176 88.6409 22.1094 85.8418 19.0494C85.0096 18.1395 84.3092 17.4142 83.981 17.1659C82.8949 16.3442 77.4645 12.7835 76.3785 11.9618C75.2924 11.1401 70.1336 7.30556 69.319 6.48386C68.6674 5.82651 64.7032 4.74918 62.8026 4.29268C57.4627 3.10579 46.3486 0.677211 44.6109 0.458093C42.4388 0.184195 36.1939 1.55368 34.5648 1.55368H27.7768C26.9623 1.55368 23.9756 2.64927 23.161 3.47097C22.3465 4.29266 19.3598 8.40112 19.0883 9.22281C18.871 9.88017 17.9117 12.2357 17.4592 13.3313Z" fill="#212832" fill-opacity="0.7"/>
</svg>
