<svg width="13" height="16" viewBox="0 0 13 16" fill="none" xmlns="http://www.w3.org/2000/svg">
<path d="M4.31005 16.0001C1.9512 15.9864 0 11.1254 0 8.64978C0 4.6059 3.00502 3.72059 4.16314 3.72059C4.68505 3.72059 5.24235 3.9275 5.73389 4.11059C6.07763 4.23831 6.43312 4.37015 6.63083 4.37015C6.74918 4.37015 7.02806 4.258 7.27428 4.15959C7.79938 3.94856 8.45279 3.68628 9.21369 3.68628C9.21505 3.68628 9.21687 3.68628 9.2182 3.68628C9.78637 3.68628 11.509 3.81215 12.5447 5.38228L12.7873 5.75031L12.4382 6.01628C11.9394 6.39622 11.0293 7.08928 11.0293 8.46212C11.0293 10.0881 12.06 10.7134 12.5552 11.0142C12.7737 11.1469 13 11.2838 13 11.5832C13 11.7786 11.4546 15.9758 9.2105 15.9758C8.66137 15.9758 8.27322 15.8092 7.93085 15.6623C7.58442 15.5135 7.28558 15.3853 6.79177 15.3853C6.54146 15.3853 6.22494 15.5048 5.88985 15.6316C5.43192 15.8042 4.9136 16.0001 4.32547 16.0001H4.31005Z" fill="white"/>
<path d="M9.45123 0.000244141C9.50967 2.12762 8.00259 3.60349 6.49727 3.51093C6.24922 1.81321 8.0024 0.000244141 9.45123 0.000244141Z" fill="white"/>
</svg>
