<svg width="118" height="70" viewBox="0 0 118 70" fill="none" xmlns="http://www.w3.org/2000/svg">
<path d="M29.5825 27.8741C29.5825 37.8153 37.6414 45.8741 47.5825 45.8741L64.9719 45.8741C67.7333 45.8741 69.9719 43.6356 69.9719 40.8741L69.9719 20.1451C69.9719 14.6222 65.4948 10.1451 59.9719 10.1451L34.5825 10.1451C31.8211 10.1451 29.5825 12.3836 29.5825 15.1451L29.5825 27.8741Z" fill="#FFF1DA"/>
<path d="M64.7518 46.2971C63.6712 45.9603 62.5288 45.7992 61.3957 45.8234C58.4607 45.8551 56.1842 46.9304 56.3113 48.2248C56.4384 49.5192 58.921 50.5423 61.856 50.5105C62.9914 50.51 64.0995 50.3247 65.1121 49.9662C65.5893 49.7864 65.8693 49.3931 65.8264 48.9633L65.6612 47.2818C65.6204 46.8518 65.2634 46.4656 64.7518 46.2971Z" fill="#D5D6DB"/>
<path d="M68.1454 26.383C67.3618 26.1389 66.5333 26.0222 65.7116 26.0397C63.5839 26.0627 61.9327 26.8421 62.0248 27.7799C62.1169 28.7177 63.9178 29.4597 66.0452 29.4367C66.8686 29.4361 67.6721 29.3015 68.4065 29.0416C68.7522 28.9112 68.9549 28.6262 68.9239 28.3146L68.8043 27.0971C68.7748 26.7855 68.5163 26.5053 68.1454 26.383Z" fill="#D5D6DB"/>
<path d="M58.5359 22.1199C58.3862 22.0196 58.1982 21.9654 58.0086 21.9677L53.0106 22.022C52.5929 22.026 52.2799 22.2983 52.3119 22.6306C52.3191 22.7067 52.3445 22.782 52.3868 22.8523L58.827 33.6369L75.4925 33.4558L58.5359 22.1199Z" fill="#029BC5"/>
<path d="M99.574 43.1795L54.3468 43.4378L29.8248 39.438L18.2992 35.5773L18.0591 33.2433L93.1169 33.4243C95.3559 33.4257 97.5987 33.8942 99.6185 34.7826C100.501 35.1756 101.325 35.6509 102.073 36.1973C102.738 36.6769 103.319 37.2241 103.8 37.8226C104.333 38.495 105.636 39.2409 105.744 40.0663C105.746 40.0661 105.285 43.3413 99.574 43.1795Z" fill="#E1E6E9"/>
<path d="M56.1697 41.1629L29.7953 53.9213C29.4484 54.1132 29.3835 54.5023 29.6502 54.7902C29.8138 54.967 30.074 55.072 30.3415 55.0694L35.3303 55.0248C36.29 55.016 37.224 54.8515 38.0748 54.5416L83.4946 40.4394L56.1697 41.1629Z" fill="#029BC5"/>
<path d="M18.3852 19.9206C18.1732 19.71 17.8521 19.5871 17.5234 19.5906L13.3957 19.6344C12.8334 19.6402 12.4131 20.007 12.4567 20.4539C12.4651 20.5389 12.49 20.6232 12.531 20.7036L18.1133 31.6927L30.2187 31.6634L18.3852 19.9206Z" fill="#029BC5"/>
<path d="M20.5013 34.4174L12.5667 37.6599C12.4513 37.7057 12.4113 37.8197 12.4773 37.9144C12.525 37.9826 12.6175 38.0247 12.7128 38.0216L16.5657 37.989C16.5957 37.9887 16.6251 37.9841 16.6522 37.9752L27.6417 34.3597L20.5013 34.4174Z" fill="#029BC5"/>
<path d="M101.364 36.1396C100.595 35.5761 99.7456 35.0869 98.8362 34.6832C97.4305 35.2562 96.2634 36.1217 95.4511 37.1933C95.3112 37.4211 95.4387 37.7079 95.7358 37.8339C95.8283 37.873 95.9302 37.8933 96.0321 37.8928L103.14 37.818C102.647 37.1991 102.049 36.634 101.364 36.1396Z" fill="#029BC5"/>
<path d="M86.4277 35.273L91.0599 35.2403L91.7469 41.9481L87.1147 41.9808L86.4277 35.273Z" fill="#D5D6DB"/>
<path d="M83.1299 36.0043C82.5713 36.0089 82.154 36.3712 82.1981 36.8136L82.2696 37.5303C82.3326 37.9721 82.8352 38.3144 83.3923 38.2948C83.9225 38.276 84.3157 37.9346 84.2919 37.5134L84.2203 36.7967C84.1762 36.3547 83.6882 36 83.1299 36.0043Z" fill="#3A556A"/>
<path d="M78.9824 36.0043C78.4238 36.009 78.0065 36.3713 78.0506 36.8136L78.1222 37.5303C78.1852 37.9722 78.6877 38.3144 79.2448 38.2948C79.775 38.276 80.1683 37.9347 80.1444 37.5134L80.0729 36.7968C80.0285 36.3548 79.5405 36 78.9824 36.0043Z" fill="#3A556A"/>
<path d="M74.8333 36.0045C74.275 36.0097 73.8586 36.3718 73.9027 36.8137L73.9742 37.5304C74.0372 37.9722 74.5398 38.3145 75.0969 38.2949C75.6271 38.2761 76.0203 37.9348 75.9964 37.5136L75.9249 36.7969C75.8807 36.3545 75.3921 35.9998 74.8333 36.0045Z" fill="#3A556A"/>
<path d="M70.6858 36.0044C70.1275 36.0097 69.7111 36.3718 69.7552 36.8138L69.8268 37.5304C69.8898 37.9723 70.3923 38.3146 70.9494 38.295C71.4796 38.2762 71.8728 37.9348 71.849 37.5136L71.7774 36.7969C71.7331 36.3545 71.2444 35.9998 70.6858 36.0044Z" fill="#3A556A"/>
<path d="M66.5379 36.0048C65.9793 36.0099 65.5627 36.3722 65.6069 36.8144L65.6785 37.5314C65.7227 37.9734 66.2111 38.328 66.7695 38.3234C67.3279 38.3187 67.7448 37.9567 67.7007 37.5147L67.629 36.7977C67.5856 36.3556 67.0976 36.0007 66.5391 36.0048C66.5386 36.0048 66.5384 36.0048 66.5379 36.0048Z" fill="#3A556A"/>
<path d="M62.3905 36.0047C61.8319 36.0099 61.4153 36.3721 61.4594 36.8143L61.5311 37.5313C61.5752 37.9733 62.0637 38.3279 62.6221 38.3233C63.1805 38.3187 63.5974 37.9566 63.5532 37.5146L63.4816 36.7976C63.4381 36.3556 62.9501 36.0006 62.3916 36.0047C62.3912 36.0047 62.3907 36.0047 62.3905 36.0047Z" fill="#3A556A"/>
<path d="M58.243 36.0048C57.6844 36.0099 57.2678 36.3722 57.312 36.8144L57.3836 37.5314C57.4285 37.9733 57.9176 38.3273 58.4757 38.3222C59.0328 38.317 59.4488 37.9557 59.4055 37.5146L59.3338 36.7976C59.2899 36.3555 58.8017 36.0005 58.243 36.0048Z" fill="#3A556A"/>
<path d="M54.0955 36.0047C53.537 36.0099 53.1203 36.3722 53.1645 36.8144L53.2361 37.5314C53.281 37.9734 53.7701 38.3274 54.3282 38.3222C54.8854 38.317 55.3014 37.9557 55.258 37.5146L55.1864 36.7976C55.1425 36.3554 54.6542 36.0005 54.0955 36.0047Z" fill="#3A556A"/>
<path d="M49.9481 36.0048C49.3895 36.0099 48.9729 36.3722 49.0171 36.8144L49.0887 37.5314C49.1335 37.9733 49.6226 38.3273 50.1807 38.3222C50.7379 38.317 51.1539 37.9557 51.1105 37.5146L51.0389 36.7976C50.9948 36.3555 50.5065 36.0005 49.9481 36.0048Z" fill="#3A556A"/>
<path d="M45.7987 36.0047C45.2403 36.0094 44.8234 36.3714 44.8675 36.8134L44.8676 36.8144L44.9392 37.5314C44.9841 37.9734 45.4732 38.3274 46.0313 38.3222C46.5885 38.317 47.0045 37.9557 46.9611 37.5146L46.8895 36.7976C46.8456 36.3554 46.3573 36.0005 45.7987 36.0047Z" fill="#3A556A"/>
<path d="M41.6522 36.0047C41.0938 36.0093 40.6769 36.3714 40.7211 36.8134L40.7212 36.8143L40.7928 37.5313C40.8377 37.9733 41.3268 38.3273 41.8849 38.3221C42.442 38.317 42.858 37.9557 42.8147 37.5146L42.7431 36.7976C42.6989 36.3554 42.2106 36.0005 41.6522 36.0047Z" fill="#3A556A"/>
</svg>
