<svg width="23" height="19" viewBox="0 0 23 19" fill="none" xmlns="http://www.w3.org/2000/svg">
<path d="M4.16686 10.6401C3.87678 10.6401 3.59322 10.7293 3.35203 10.8963C3.11083 11.0633 2.92285 11.3007 2.81184 11.5785C2.70083 11.8562 2.67179 12.1618 2.72838 12.4567C2.78497 12.7515 2.92466 13.0224 3.12977 13.2349C3.33489 13.4475 3.59623 13.5923 3.88073 13.6509C4.16524 13.7096 4.46013 13.6795 4.72813 13.5644C4.99613 13.4494 5.22519 13.2546 5.38635 13.0046C5.54751 12.7546 5.63353 12.4608 5.63353 12.1601C5.63353 11.757 5.47901 11.3704 5.20395 11.0853C4.9289 10.8003 4.55585 10.6401 4.16686 10.6401ZM4.16686 12.9201C4.02182 12.9201 3.88004 12.8756 3.75944 12.7921C3.63885 12.7085 3.54486 12.5899 3.48935 12.451C3.43385 12.3121 3.41932 12.1593 3.44762 12.0119C3.47592 11.8644 3.54576 11.729 3.64832 11.6227C3.75088 11.5164 3.88154 11.4441 4.0238 11.4147C4.16605 11.3854 4.3135 11.4005 4.4475 11.458C4.5815 11.5155 4.69603 11.6129 4.77661 11.7379C4.85719 11.8629 4.9002 12.0098 4.9002 12.1601C4.9002 12.3617 4.82293 12.555 4.68541 12.6975C4.54788 12.8401 4.36136 12.9201 4.16686 12.9201Z" fill="white"/>
<path d="M18.8334 10.6401C18.5433 10.6401 18.2597 10.7293 18.0185 10.8963C17.7773 11.0633 17.5894 11.3007 17.4783 11.5785C17.3673 11.8562 17.3383 12.1618 17.3949 12.4567C17.4515 12.7515 17.5912 13.0224 17.7963 13.2349C18.0014 13.4475 18.2627 13.5923 18.5472 13.6509C18.8317 13.7096 19.1266 13.6795 19.3946 13.5644C19.6626 13.4494 19.8917 13.2546 20.0528 13.0046C20.214 12.7546 20.3 12.4608 20.3 12.1601C20.3 11.757 20.1455 11.3704 19.8704 11.0853C19.5954 10.8003 19.2223 10.6401 18.8334 10.6401ZM18.8334 12.9201C18.6883 12.9201 18.5465 12.8756 18.4259 12.7921C18.3053 12.7085 18.2114 12.5899 18.1559 12.451C18.1003 12.3121 18.0858 12.1593 18.1141 12.0119C18.1424 11.8644 18.2123 11.729 18.3148 11.6227C18.4174 11.5164 18.548 11.4441 18.6903 11.4147C18.8325 11.3854 18.98 11.4005 19.114 11.458C19.248 11.5155 19.3625 11.6129 19.4431 11.7379C19.5237 11.8629 19.5667 12.0098 19.5667 12.1601C19.5667 12.3617 19.4894 12.555 19.3519 12.6975C19.2144 12.8401 19.0279 12.9201 18.8334 12.9201Z" fill="white"/>
<path d="M8.2002 12.5403H14.8002V13.3003H8.2002V12.5403Z" fill="white"/>
<path d="M8.2002 11.0203H14.8002V11.7803H8.2002V11.0203Z" fill="white"/>
<path d="M10.3999 5.32031H12.5999V6.08031H10.3999V5.32031Z" fill="white"/>
<path d="M22.5 8.74024V7.98024C22.4991 7.67817 22.383 7.38873 22.1769 7.17514C21.9708 6.96154 21.6915 6.84115 21.4 6.84024H19.948L19.189 4.08144L18.9617 3.14284C18.902 2.89639 18.7646 2.67766 18.5713 2.52138C18.378 2.3651 18.1398 2.28023 17.8947 2.28024H14.8V0.760244C14.7994 0.558865 14.722 0.365905 14.5846 0.223507C14.4472 0.0811099 14.261 0.000845577 14.0667 0.000244141H8.93333C8.73902 0.000845577 8.55283 0.0811099 8.41543 0.223507C8.27803 0.365905 8.20058 0.558865 8.2 0.760244V2.28024H5.10533C4.86016 2.28023 4.62201 2.3651 4.4287 2.52138C4.23539 2.67766 4.09799 2.89639 4.03833 3.14284L3.81467 4.07764L3.052 6.84024H1.6C1.30853 6.84115 1.02925 6.96154 0.823144 7.17514C0.617043 7.38873 0.50087 7.67817 0.5 7.98024V8.74024C0.500594 8.93275 0.548342 9.12194 0.638768 9.2901C0.729194 9.45825 0.859338 9.59986 1.017 9.70164C0.685534 10.0546 0.500046 10.5277 0.5 11.0202V15.5802C0.500506 15.7397 0.533419 15.8972 0.596597 16.0425C0.659774 16.1879 0.751796 16.3178 0.866667 16.4238V17.8602C0.867537 18.1623 0.983709 18.4518 1.18981 18.6653C1.39591 18.8789 1.6752 18.9993 1.96667 19.0002H4.9C5.19147 18.9993 5.47075 18.8789 5.67686 18.6653C5.88296 18.4518 5.99913 18.1623 6 17.8602V16.7202H17V17.8602C17.0009 18.1623 17.117 18.4518 17.3231 18.6653C17.5292 18.8789 17.8085 18.9993 18.1 19.0002H21.0333C21.3248 18.9993 21.6041 18.8789 21.8102 18.6653C22.0163 18.4518 22.1325 18.1623 22.1333 17.8602V16.4238C22.2482 16.3178 22.3402 16.1879 22.4034 16.0425C22.4666 15.8972 22.4995 15.7397 22.5 15.5802V11.0202C22.5 10.5277 22.3145 10.0546 21.983 9.70164C22.1407 9.59986 22.2708 9.45825 22.3612 9.2901C22.4517 9.12194 22.4994 8.93275 22.5 8.74024ZM8.93333 0.760244H14.0667V2.28024H8.93333V0.760244ZM4.74967 3.32904C4.76932 3.24666 4.81502 3.17346 4.87948 3.12112C4.94394 3.06878 5.02345 3.04031 5.10533 3.04024H17.8947C17.9766 3.04031 18.0561 3.06878 18.1205 3.12112C18.185 3.17346 18.2307 3.24666 18.2503 3.32904L18.364 3.80024H4.636L4.74967 3.32904ZM4.44167 4.56024H18.5583L19.8123 9.12024H9.267C9.18082 8.5892 8.91585 8.10698 8.51913 7.75921C8.12241 7.41143 7.61961 7.22061 7.1 7.22061C6.58039 7.22061 6.07759 7.41143 5.68087 7.75921C5.28415 8.10698 5.01918 8.5892 4.933 9.12024H3.18767L4.44167 4.56024ZM8.51533 9.12024H5.68467C5.76472 8.79418 5.94733 8.50505 6.20364 8.29855C6.45995 8.09204 6.77535 7.97993 7.1 7.97993C7.42465 7.97993 7.74005 8.09204 7.99636 8.29855C8.25267 8.50505 8.43528 8.79418 8.51533 9.12024ZM1.23333 7.98024C1.23333 7.87946 1.27196 7.78281 1.34073 7.71154C1.40949 7.64028 1.50275 7.60024 1.6 7.60024H2.843L2.425 9.12024H1.6C1.50275 9.12024 1.40949 9.08021 1.34073 9.00894C1.27196 8.93768 1.23333 8.84103 1.23333 8.74024V7.98024ZM5.26667 17.8602C5.26667 17.961 5.22804 18.0577 5.15927 18.1289C5.09051 18.2002 4.99725 18.2402 4.9 18.2402H1.96667C1.86942 18.2402 1.77616 18.2002 1.70739 18.1289C1.63863 18.0577 1.6 17.961 1.6 17.8602V16.7202H5.26667V17.8602ZM21.4 17.8602C21.4 17.961 21.3614 18.0577 21.2926 18.1289C21.2238 18.2002 21.1306 18.2402 21.0333 18.2402H18.1C18.0028 18.2402 17.9095 18.2002 17.8407 18.1289C17.772 18.0577 17.7333 17.961 17.7333 17.8602V16.7202H21.4V17.8602ZM21.7667 15.5802C21.7667 15.681 21.728 15.7777 21.6593 15.8489C21.5905 15.9202 21.4972 15.9602 21.4 15.9602H1.6C1.50275 15.9602 1.40949 15.9202 1.34073 15.8489C1.27196 15.7777 1.23333 15.681 1.23333 15.5802V15.2002H21.7667V15.5802ZM21.7667 14.4402H1.23333V11.0202C1.2342 10.7182 1.35038 10.4287 1.55648 10.2151C1.76258 10.0015 2.04186 9.88115 2.33333 9.88024H20.6667C20.9581 9.88115 21.2374 10.0015 21.4435 10.2151C21.6496 10.4287 21.7658 10.7182 21.7667 11.0202V14.4402ZM21.7667 8.74024C21.7667 8.84103 21.728 8.93768 21.6593 9.00894C21.5905 9.08021 21.4972 9.12024 21.4 9.12024H20.575L20.157 7.60024H21.4C21.4972 7.60024 21.5905 7.64028 21.6593 7.71154C21.728 7.78281 21.7667 7.87946 21.7667 7.98024V8.74024Z" fill="white"/>
</svg>
