<svg width="23" height="22" viewBox="0 0 23 22" fill="none" xmlns="http://www.w3.org/2000/svg">
<path d="M1.04461 4.47573C0.748039 4.47573 0.505392 4.23309 0.5 3.93652V0.544852C0.5 0.242891 0.742647 0.000244141 1.04461 0.000244141H4.43627C4.73284 0.000244141 4.97549 0.242891 4.97549 0.544852V1.72573H18.0245V0.544852C18.0245 0.248283 18.2672 0.0056363 18.5637 0.000244141H21.9554C22.252 0.000244141 22.4946 0.242891 22.5 0.544852V3.93652C22.5 4.23309 22.2574 4.47573 21.9554 4.47573H20.7745V17.5248H21.9554C22.252 17.5248 22.4946 17.7674 22.5 18.064V21.4556C22.5 21.7522 22.2574 21.9949 21.9554 22.0002H18.5637C18.2672 22.0002 18.0245 21.7576 18.0245 21.4556V20.2748H4.97549V21.4556C4.97549 21.7522 4.73284 21.9949 4.43627 22.0002H1.04461C0.748039 22.0002 0.505392 21.7576 0.5 21.4556V18.064C0.5 17.7674 0.742647 17.5248 1.04461 17.5248H2.22549V4.47573H1.04461ZM21.4216 3.3973V1.07868H19.1029V3.3973H21.4216ZM19.1029 20.9218H21.4216V18.6032H19.1029V20.9218ZM4.97549 18.064V19.1963H18.0245V18.064C18.0245 17.7674 18.2672 17.5248 18.5637 17.5248H19.6961V4.47573H18.5637C18.2672 4.47573 18.0245 4.23309 18.0245 3.93652V2.80417H4.97549V3.93652C4.97549 4.23309 4.73284 4.47573 4.43627 4.47573H3.30392V17.5248H4.43627C4.73284 17.5248 4.97549 17.7674 4.97549 18.064ZM1.57843 18.6032V20.9218H3.89706V18.6032H1.57843ZM3.89706 3.3973V1.07868H1.57843V3.3973H3.89706Z" fill="white"/>
</svg>
