<svg width="23" height="18" viewBox="0 0 23 18" fill="none" xmlns="http://www.w3.org/2000/svg">
<path d="M20.2964 17.9998C19.8474 18.0091 19.4063 17.8793 19.0324 17.6278C18.7541 17.4441 18.4289 17.3463 18.0964 17.3463C17.764 17.3463 17.4387 17.4441 17.1604 17.6278C16.7828 17.8707 16.3443 17.9998 15.8966 17.9998C15.4488 17.9998 15.0104 17.8707 14.6327 17.6278C14.3544 17.4439 14.0291 17.346 13.6966 17.346C13.364 17.346 13.0387 17.4439 12.7604 17.6278C12.3828 17.8707 11.9443 17.9998 11.4966 17.9998C11.0488 17.9998 10.6104 17.8707 10.2327 17.6278C9.95462 17.444 9.62953 17.3461 9.29723 17.3461C8.96492 17.3461 8.63983 17.444 8.36174 17.6278C8.01931 17.8577 7.61969 17.9855 7.20868 17.9965L7.18604 17.3428C7.48963 17.3355 7.78444 17.2385 8.03401 17.0636C8.41159 16.8208 8.84993 16.6918 9.29755 16.6918C9.74517 16.6918 10.1835 16.8208 10.5611 17.0636C10.8394 17.2474 11.1646 17.3453 11.4971 17.3453C11.8295 17.3453 12.1548 17.2474 12.433 17.0636C12.8108 16.8205 13.2494 16.6914 13.6972 16.6914C14.1451 16.6914 14.5837 16.8205 14.9614 17.0636C15.2397 17.2474 15.5649 17.3453 15.8974 17.3453C16.2298 17.3453 16.5551 17.2474 16.8334 17.0636C17.2111 16.8208 17.6495 16.6918 18.0972 16.6918C18.5449 16.6918 18.9834 16.8208 19.3611 17.0636C19.64 17.2479 19.9661 17.346 20.2993 17.346C20.6326 17.346 20.9586 17.2479 21.2376 17.0636C21.611 16.8129 22.0513 16.6834 22.4997 16.6923V17.3461C22.1659 17.3368 21.8379 17.4354 21.5634 17.6275C21.1885 17.8793 20.7464 18.0092 20.2964 17.9998Z" fill="white"/>
<path d="M2.7 17.9997C2.25104 18.009 1.81001 17.8792 1.43629 17.6277C1.16184 17.4355 0.833829 17.3367 0.5 17.3459V16.6922C0.949066 16.6828 1.39021 16.8126 1.76403 17.0642C2.03833 17.2565 2.36626 17.3552 2.7 17.3459C3.03389 17.3552 3.36196 17.2564 3.63629 17.0638C4.00932 16.8124 4.44973 16.6827 4.89806 16.6922C5.33551 16.6823 5.76574 16.8061 6.13232 17.0475L5.80588 17.6117C5.53811 17.4296 5.22069 17.3367 4.89806 17.3459C4.56555 17.3369 4.23887 17.4354 3.96564 17.627C3.5915 17.8793 3.1497 18.0093 2.7 17.9997Z" fill="white"/>
<path d="M20.2977 15.7115C19.8484 15.7208 19.407 15.591 19.0327 15.3395C18.7542 15.1557 18.4287 15.0577 18.096 15.0577C17.7632 15.0577 17.4377 15.1557 17.1592 15.3395C16.7815 15.5824 16.3431 15.7114 15.8955 15.7114C15.4478 15.7114 15.0094 15.5824 14.6318 15.3395C14.3536 15.1558 14.0285 15.0579 13.6961 15.0579C13.3638 15.0579 13.0386 15.1558 12.7605 15.3395C12.3828 15.5825 11.9445 15.7115 11.4968 15.7115C11.0491 15.7115 10.6107 15.5825 10.2331 15.3395C9.9549 15.1558 9.62976 15.0579 9.29741 15.0579C8.96506 15.0579 8.63992 15.1558 8.36176 15.3395C7.98806 15.5911 7.54702 15.7209 7.09806 15.7115C6.64909 15.7209 6.20806 15.5911 5.83435 15.3395C5.56015 15.1473 5.23234 15.0486 4.89871 15.0578C4.56518 15.0486 4.23748 15.1474 3.96338 15.3395C3.59027 15.5908 3.14994 15.7206 2.70162 15.7115C2.25255 15.7209 1.81141 15.5911 1.43759 15.3395C1.16284 15.1469 0.834285 15.0482 0.5 15.0578V14.4041C0.94896 14.3947 1.38999 14.5245 1.76371 14.776C2.03816 14.9683 2.36617 15.067 2.7 15.0578C3.03352 15.0669 3.36122 14.9682 3.63532 14.776C4.00843 14.5248 4.44877 14.3949 4.89709 14.4041C5.34638 14.3944 5.7878 14.5243 6.16176 14.776C6.43606 14.9683 6.764 15.067 7.09773 15.0578C7.43147 15.067 7.7594 14.9683 8.0337 14.776C8.41131 14.5331 8.84971 14.404 9.29741 14.404C9.74511 14.404 10.1835 14.5331 10.5611 14.776C10.8393 14.9598 11.1645 15.0577 11.4969 15.0577C11.8293 15.0577 12.1545 14.9598 12.4327 14.776C12.8103 14.5331 13.2487 14.404 13.6964 14.404C14.1441 14.404 14.5825 14.5331 14.9601 14.776C15.2383 14.9598 15.5635 15.0577 15.896 15.0577C16.2284 15.0577 16.5536 14.9598 16.8318 14.776C17.2098 14.5331 17.6485 14.4041 18.0964 14.4041C18.5444 14.4041 18.9831 14.5331 19.3611 14.776C19.6398 14.9598 19.9654 15.0576 20.2982 15.0576C20.631 15.0576 20.9566 14.9598 21.2353 14.776C21.6095 14.5247 22.0508 14.3949 22.5 14.4041V15.0578C22.1655 15.0482 21.8368 15.147 21.5618 15.3395C21.1878 15.5908 20.7468 15.7206 20.2977 15.7115Z" fill="white"/>
<path d="M20.2964 13.4236C19.8474 13.4328 19.4063 13.303 19.0324 13.0516C18.7579 12.8594 18.4299 12.7607 18.0961 12.7698C17.8511 12.7613 17.6078 12.8141 17.3879 12.9235L17.1025 12.3351C17.4114 12.1822 17.7522 12.1067 18.0961 12.1151C18.5457 12.1059 18.9873 12.236 19.3614 12.4881C19.6404 12.6723 19.9664 12.7704 20.2997 12.7704C20.6329 12.7704 20.959 12.6723 21.2379 12.4881C21.6112 12.2372 22.0514 12.1074 22.4997 12.1161V12.7698C22.1659 12.7606 21.8379 12.8592 21.5634 13.0513C21.1885 13.3031 20.7464 13.433 20.2964 13.4236Z" fill="white"/>
<path d="M15.8935 13.4237C15.4452 13.4332 15.0048 13.3035 14.6318 13.052C14.3535 12.8681 14.0282 12.7702 13.6956 12.7702C13.3631 12.7702 13.0378 12.8681 12.7595 13.052C12.3818 13.2949 11.9434 13.424 11.4956 13.424C11.0479 13.424 10.6094 13.2949 10.2318 13.052C9.9535 12.8682 9.62825 12.7703 9.29579 12.7703C8.96334 12.7703 8.63809 12.8682 8.35982 13.052C7.98618 13.3031 7.54545 13.4328 7.09676 13.4237C6.6478 13.433 6.20678 13.3032 5.83306 13.0517C5.55861 12.8595 5.23059 12.7608 4.89676 12.7699C4.56425 12.7609 4.23757 12.8594 3.96435 13.051C3.59057 13.303 3.14926 13.4331 2.7 13.4237C2.25104 13.433 1.81001 13.3032 1.43629 13.0517C1.16184 12.8595 0.833829 12.7608 0.5 12.7699V12.1162C0.949067 12.1068 1.39021 12.2366 1.76403 12.4882C2.03833 12.6805 2.36626 12.7792 2.7 12.7699C3.03389 12.7792 3.36196 12.6804 3.63629 12.4879C4.00932 12.2364 4.44973 12.1067 4.89806 12.1162C5.34701 12.1069 5.78803 12.2367 6.16176 12.4882C6.43606 12.6805 6.764 12.7792 7.09773 12.7699C7.43156 12.7791 7.75958 12.6804 8.03403 12.4882C8.41171 12.2452 8.85016 12.1162 9.29789 12.1162C9.74563 12.1162 10.1841 12.2452 10.5618 12.4882C10.84 12.672 11.1653 12.7698 11.4977 12.7698C11.8302 12.7698 12.1554 12.672 12.4337 12.4882C12.8114 12.2451 13.25 12.1159 13.6979 12.1159C14.1458 12.1159 14.5843 12.2451 14.9621 12.4882C15.2471 12.6819 15.5851 12.7803 15.9285 12.7696C15.9534 12.7699 15.9784 12.7686 16.0032 12.7657L16.0893 13.4135C16.0243 13.4212 15.9589 13.4246 15.8935 13.4237Z" fill="white"/>
<path d="M20.2977 11.1353C19.8484 11.1446 19.407 11.0148 19.0327 10.7634C18.7542 10.5795 18.4287 10.4816 18.096 10.4816C17.7632 10.4816 17.4377 10.5795 17.1592 10.7634C16.7815 11.0062 16.3431 11.1352 15.8955 11.1352C15.4478 11.1352 15.0094 11.0062 14.6318 10.7634C14.3536 10.5796 14.0285 10.4817 13.6961 10.4817C13.3638 10.4817 13.0386 10.5796 12.7605 10.7634C12.3828 11.0063 11.9445 11.1354 11.4968 11.1354C11.0491 11.1354 10.6107 11.0063 10.2331 10.7634C9.9549 10.5796 9.62976 10.4817 9.29741 10.4817C8.96506 10.4817 8.63992 10.5796 8.36176 10.7634C7.98806 11.0149 7.54702 11.1448 7.09806 11.1353C6.64909 11.1448 6.20806 11.0149 5.83435 10.7634C5.56015 10.5711 5.23234 10.4724 4.89871 10.4816C4.56518 10.4725 4.23748 10.5712 3.96338 10.7634C3.59027 11.0147 3.14994 11.1445 2.70162 11.1353C2.25255 11.1448 1.81141 11.0149 1.43759 10.7634C1.16284 10.5708 0.834285 10.472 0.5 10.4816V9.82789C0.94896 9.81852 1.38999 9.94833 1.76371 10.1999C2.03816 10.3921 2.36617 10.4908 2.7 10.4816C3.03352 10.4908 3.36122 10.3921 3.63532 10.1999C4.00843 9.94858 4.44877 9.81877 4.89709 9.82789C5.34638 9.81825 5.7878 9.94808 6.16176 10.1999C6.43606 10.3921 6.764 10.4909 7.09773 10.4816C7.43147 10.4909 7.7594 10.3921 8.0337 10.1999C8.41131 9.95688 8.84971 9.82781 9.29741 9.82781C9.74511 9.82781 10.1835 9.95688 10.5611 10.1999C10.8393 10.3837 11.1645 10.4816 11.4969 10.4816C11.8293 10.4816 12.1545 10.3837 12.4327 10.1999C12.8103 9.95688 13.2487 9.82781 13.6964 9.82781C14.1441 9.82781 14.5825 9.95688 14.9601 10.1999C15.2383 10.3837 15.5635 10.4816 15.896 10.4816C16.2284 10.4816 16.5536 10.3837 16.8318 10.1999C17.2098 9.95698 17.6485 9.82797 18.0964 9.82797C18.5444 9.82797 18.9831 9.95698 19.3611 10.1999C19.6398 10.3836 19.9654 10.4815 20.2982 10.4815C20.631 10.4815 20.9566 10.3836 21.2353 10.1999C21.6095 9.94848 22.0508 9.81869 22.5 9.82789V10.4816C22.1655 10.4721 21.8368 10.5708 21.5618 10.7634C21.1878 11.0146 20.7468 11.1444 20.2977 11.1353Z" fill="white"/>
<path d="M15.6873 10.858L15.0768 10.6417C15.234 10.1853 15.2983 9.70144 15.2656 9.21932C15.233 8.73719 15.1042 8.26672 14.8869 7.8362L12.6646 3.43957C12.6426 3.39616 12.6306 3.34833 12.6293 3.2996C12.628 3.25086 12.6375 3.20246 12.6572 3.15793C12.6768 3.1134 12.706 3.07387 12.7428 3.04223C12.7795 3.0106 12.8227 2.98766 12.8693 2.9751L17.2981 1.78205C17.4425 1.74392 17.566 1.64975 17.642 1.52004C17.7179 1.39032 17.7401 1.23555 17.7037 1.0894C17.6673 0.943245 17.5752 0.817536 17.4475 0.739618C17.3198 0.661701 17.1668 0.63788 17.0218 0.673338L11.6616 1.96771C11.547 1.99507 11.4402 2.04871 11.3494 2.12448C11.2587 2.20025 11.1864 2.29611 11.1382 2.40464C11.09 2.51317 11.0671 2.63145 11.0714 2.75033C11.0758 2.86921 11.1071 2.98549 11.1631 3.09016L12.7548 6.07768C12.7952 6.15361 12.8042 6.24258 12.78 6.32522C12.7558 6.40786 12.7002 6.47749 12.6254 6.51894L10.571 7.66296L10.2588 7.0903L12.0324 6.10252L10.594 3.40002C10.4911 3.2071 10.4335 2.99285 10.4256 2.77384C10.4178 2.55483 10.4599 2.33693 10.5487 2.13699C10.6375 1.93706 10.7707 1.76043 10.9378 1.62078C11.105 1.48114 11.3017 1.3822 11.5128 1.33164L16.8704 0.0375914C17.1823 -0.0420327 17.5128 0.00678368 17.789 0.173301C18.0653 0.339819 18.2648 0.610397 18.3436 0.925513C18.4224 1.24063 18.3741 1.57447 18.2093 1.85359C18.0445 2.13271 17.7767 2.33426 17.4648 2.41388L13.4226 3.50233L15.4634 7.53843C15.7204 8.0479 15.8727 8.60462 15.9112 9.17511C15.9496 9.7456 15.8735 10.3181 15.6873 10.858Z" fill="white"/>
<path d="M9.12789 7.72508L5.19629 9.91382L5.50841 10.4861L9.44001 8.29735L9.12789 7.72508Z" fill="white"/>
<path d="M18.6174 8.68369C18.1375 8.68369 17.6683 8.53992 17.2693 8.27055C16.8703 8.00118 16.5593 7.61831 16.3756 7.17036C16.192 6.72242 16.1439 6.22951 16.2375 5.75397C16.3312 5.27843 16.5623 4.84162 16.9016 4.49878C17.241 4.15594 17.6733 3.92246 18.144 3.82787C18.6147 3.73328 19.1026 3.78182 19.546 3.96737C19.9893 4.15291 20.3683 4.46713 20.6349 4.87027C20.9015 5.27341 21.0439 5.74737 21.0439 6.23223C21.0432 6.88218 20.7873 7.50532 20.3324 7.96491C19.8775 8.4245 19.2607 8.683 18.6174 8.68369ZM18.6174 4.43449C18.2655 4.43449 17.9214 4.53992 17.6288 4.73746C17.3362 4.935 17.1081 5.21577 16.9734 5.54426C16.8387 5.87276 16.8035 6.23422 16.8722 6.58295C16.9408 6.93168 17.1103 7.252 17.3592 7.50342C17.608 7.75484 17.9251 7.92606 18.2702 7.99543C18.6154 8.06479 18.9732 8.02919 19.2983 7.89312C19.6235 7.75706 19.9014 7.52664 20.0969 7.231C20.2924 6.93536 20.3968 6.58779 20.3968 6.23223C20.3962 5.75562 20.2085 5.29871 19.875 4.9617C19.5414 4.62469 19.0891 4.43509 18.6174 4.43449Z" fill="white"/>
</svg>
