<svg width="82" height="70" viewBox="0 0 82 70" fill="none" xmlns="http://www.w3.org/2000/svg">
<path d="M82 52C82 61.9411 73.9411 70 64 70L42.4347 70C39.6733 70 37.4347 67.7614 37.4347 65L37.4347 36.0256C37.4347 30.5028 41.9119 26.0256 47.4347 26.0256L77 26.0256C79.7614 26.0256 82 28.2642 82 31.0256L82 52Z" fill="#FFF1DA"/>
<path d="M20.9699 45.4618L19.287 44.6506L9.28955 59.5343H20.4469L21.522 58.8284V45.9712L20.9699 45.4618Z" fill="#407093"/>
<path d="M19.439 44.724L15.6553 42.9001H14.9422L4.24316 58.8284L4.88011 59.5343H9.49085L19.439 44.724Z" fill="#365E7D"/>
<path d="M23.5309 58.8282H8.77755C8.10733 58.8282 7.56396 59.3752 7.56396 60.0502V61.5986C7.56396 62.2733 8.10721 62.8203 8.7773 62.8204H23.5309C24.2011 62.8204 24.7445 62.2734 24.7445 61.5986V60.0502C24.7445 59.3752 24.2011 58.8282 23.5309 58.8282Z" fill="#4A80AA"/>
<path d="M7.81475 61.5987V60.0502C7.81475 59.3754 8.35811 58.8283 9.02833 58.8283H1.21358C0.543364 58.8283 0 59.3753 0 60.0502V61.5987C0 62.2735 0.543364 62.8205 1.21358 62.8205H9.02821C8.35799 62.8205 7.81475 62.2735 7.81475 61.5987Z" fill="#407093"/>
<path d="M18.931 35.8818C18.4768 36.8251 18.2202 37.8828 18.2202 39.0016C18.2202 42.0591 20.1217 44.6672 22.7979 45.699C23.9469 45.3365 24.9679 44.6827 25.7743 43.8219V42.2596L18.931 35.8818Z" fill="#4A80AA"/>
<path d="M18.3403 39.0262C18.3403 37.9332 18.5913 36.9001 19.0358 35.979L16.8483 33.9403H15.9607C14.6184 35.2152 13.7793 37.0215 13.7793 39.0261C13.7793 42.8878 16.8884 46.0183 20.7237 46.0183C21.5226 46.0183 22.2888 45.8802 23.0028 45.63C20.2888 44.6794 18.3403 42.0827 18.3403 39.0262Z" fill="#407093"/>
<path d="M58.6584 0.829854C57.5595 -0.276618 55.7778 -0.276618 54.679 0.829854L51.9937 3.5337V3.87639L55.3454 7.39446L55.973 7.54046L58.6583 4.83661C59.7573 3.73026 59.7573 1.93633 58.6584 0.829854Z" fill="#FFD086"/>
<path d="M59.4008 2.16724C59.2836 1.67744 59.0381 1.2123 58.6584 0.829854C57.5595 -0.276618 55.7778 -0.276618 54.679 0.829854L51.9937 3.5337V3.87639L53.7707 5.74162C54.8301 4.63159 55.882 3.53616 56.4229 2.99151C57.3247 2.08368 58.6417 2.07669 59.4008 2.16724Z" fill="#FFC365"/>
<path d="M49.465 8.03228C49.4341 8.03228 49.403 8.03068 49.3716 8.02762L18.3396 4.95212C17.822 4.90083 17.4439 4.43692 17.4948 3.91583C17.5458 3.39474 18.0068 3.01426 18.524 3.06518L49.5561 6.14055C50.0735 6.19184 50.4518 6.65575 50.4008 7.17684C50.353 7.66652 49.9434 8.03228 49.465 8.03228Z" fill="#365E7D"/>
<path d="M27.3146 13.8816C26.897 13.8816 26.5155 13.5997 26.4046 13.1739C26.2726 12.6674 26.5735 12.1491 27.0764 12.0163L49.2254 6.16674C49.7283 6.03411 50.2431 6.3368 50.375 6.84329C50.507 7.34965 50.2062 7.86792 49.7032 8.0008L27.5542 13.8503C27.474 13.8714 27.3936 13.8816 27.3146 13.8816Z" fill="#407093"/>
<path d="M55.4809 42.3016C55.0021 42.3016 54.5925 41.9354 54.5449 41.4456L51.5094 10.181C51.4588 9.66002 51.8373 9.19623 52.3549 9.14519C52.8724 9.0966 53.3329 9.47548 53.3835 9.99657L56.4189 41.2612C56.4695 41.7822 56.091 42.246 55.5735 42.297C55.5424 42.3 55.5115 42.3016 55.4809 42.3016Z" fill="#365E7D"/>
<path d="M46.5488 33.4272C46.469 33.4272 46.3878 33.4168 46.3069 33.3953C45.8042 33.2611 45.5048 32.7421 45.6381 32.236L51.5333 9.84848C51.6665 9.34223 52.1818 9.04126 52.6846 9.175C53.1872 9.30923 53.4866 9.82823 53.3533 10.3344L47.4582 32.7218C47.3465 33.1466 46.9654 33.4272 46.5488 33.4272Z" fill="#407093"/>
<path d="M49.2949 6.25L51.9871 3.53926L55.9659 7.54547L53.2737 10.2562L49.2949 6.25Z" fill="#FFC365"/>
<path d="M51.34 8.29742C51.987 7.61523 52.9975 6.55121 53.9748 5.52818L51.994 3.53363L49.3013 6.24472L51.34 8.29742Z" fill="#FFA90F"/>
<path d="M53.8804 11.803C53.6395 11.803 53.3984 11.7103 53.2147 11.5253L48.0366 6.31172C47.6688 5.94142 47.6688 5.34132 48.0366 4.9709C48.4042 4.60085 49.0003 4.60085 49.3681 4.9709L54.5462 10.1845C54.914 10.5548 54.914 11.1549 54.5462 11.5253C54.3623 11.7105 54.1214 11.803 53.8804 11.803Z" fill="#4A80AA"/>
<path d="M54.4882 44.0081L22.962 11.9897C18.7823 21.4906 18.0565 31.6897 21.1856 40.4847C29.8272 48.3335 42.7363 49.5388 54.6203 44.6049L54.4882 44.0081Z" fill="#B5DCFF"/>
<path d="M23.1295 12.1602L15.9064 4.82434L15.1825 4.89624C10.0935 17.3233 11.5794 30.8644 20.2043 39.5485C20.7267 40.0745 21.2673 40.5737 21.8238 41.0471C18.188 32.2626 18.7789 21.8145 23.1295 12.1602Z" fill="#8BCAFF"/>
<path d="M57.3687 41.7323L25.3945 9.53809C25.0798 9.58692 24.7769 9.73096 24.5346 9.97488L23.1439 11.3753C22.8452 11.6761 22.6966 12.0688 22.6924 12.463L54.5653 44.555C55.0392 45.0322 55.8075 45.0322 56.2814 44.555L57.3689 43.4602C57.8427 42.9832 57.8426 42.2094 57.3687 41.7323Z" fill="#DBEDFF"/>
<path d="M23.1919 11.3993L24.5537 10.0282C24.8044 9.77565 25.1211 9.63112 25.448 9.59198L18.0356 2.12863C17.5617 1.65146 16.7934 1.65146 16.3194 2.12863L15.2319 3.22356C14.758 3.70073 14.758 4.47433 15.2319 4.95149L22.7485 12.5197C22.7386 12.1153 22.8854 11.7079 23.1919 11.3993Z" fill="#B5DCFF"/>
</svg>
