<svg width="80" height="70" viewBox="0 0 80 70" fill="none" xmlns="http://www.w3.org/2000/svg">
<path d="M28.0518 52C28.0518 61.9411 36.1106 70 46.0518 70L74.9999 70C77.7613 70 79.9999 67.7614 79.9999 65L79.9999 28.0303C79.9999 22.5074 75.5227 18.0303 69.9999 18.0303L33.0518 18.0303C30.2903 18.0303 28.0518 20.2689 28.0518 23.0303L28.0518 52Z" fill="#FFF1DA"/>
<path d="M51.9481 29.536V23.4943C51.9481 22.31 51.0076 21.3499 49.8474 21.3499H47.5838C46.6788 21.3499 45.8757 20.7579 45.5912 19.8808C45.2743 18.9038 44.8892 17.9584 44.4419 17.0506C44.0344 16.2238 44.1904 15.2242 44.8314 14.5697L46.4329 12.9348C47.2533 12.0973 47.2533 10.7395 46.4329 9.90205L42.248 5.62996C41.4276 4.79247 40.0975 4.79247 39.2771 5.62996L37.6756 7.26483C37.0345 7.91933 36.0553 8.07842 35.2454 7.66251C34.3561 7.20583 33.43 6.81274 32.4729 6.48922C31.6137 6.19878 31.0338 5.379 31.0338 4.45508V2.14447C31.0338 0.960094 30.0933 0 28.9331 0H23.0148C21.8546 0 20.9141 0.960094 20.9141 2.14447V4.45519C20.9141 5.37911 20.3342 6.19889 19.475 6.48933C18.5179 6.81285 17.5918 7.20593 16.7025 7.66261C15.8925 8.07853 14.9134 7.91933 14.2722 7.26494L12.6707 5.63007C11.8503 4.79257 10.5202 4.79257 9.69985 5.63007L5.51515 9.90215C4.69474 10.7396 4.69474 12.0974 5.51515 12.9349L7.11665 14.5698C7.7577 15.2243 7.91365 16.2239 7.50621 17.0507C7.05885 17.9585 6.67379 18.9039 6.35687 19.8809C6.15577 20.5007 5.69576 20.9781 5.12381 21.2049C4.88644 21.299 4.73425 21.4566 4.46876 21.4566H2.2052C1.04499 21.4566 0.104492 22.4167 0.104492 23.601V29.4293C0.104492 30.6136 1.04499 31.5737 2.2052 31.5737H4.46876C5.37383 31.5737 6.17688 32.2724 6.4614 33.1495C6.77831 34.1265 7.16338 35.0718 7.61074 35.9797C8.01817 36.8065 7.86222 37.8061 7.22118 38.4606L5.72419 40.0955C4.90379 40.933 4.90379 42.2908 5.72419 43.1283L9.70005 47.1869C10.5205 48.0244 11.8505 48.0244 12.6709 47.1869L14.2724 45.5521C14.9135 44.8976 15.8928 44.7385 16.7027 45.1544C17.592 45.6111 18.7271 46.1109 19.6842 46.4344C20.5434 46.7248 21.1233 47.5446 21.1233 48.4685V50.7792C21.1233 51.9636 22.0638 52.9237 23.224 52.9237H28.8288C29.989 52.9237 30.9295 51.9636 30.9295 50.7792V48.4685C30.9295 48.1975 31.0839 48.0421 31.1761 47.7998C31.3982 47.216 31.8659 46.7464 32.473 46.5411C33.4301 46.2176 34.3562 45.8245 35.2455 45.3678C36.0554 44.9519 37.0346 45.1111 37.6757 45.7655L39.2773 47.4003C40.0977 48.2378 41.4277 48.2378 42.2481 47.4003L46.433 43.1283C47.2534 42.2908 47.2534 40.933 46.433 40.0955L44.8315 38.4606C44.1905 37.8061 44.0345 36.8065 44.442 35.9797C44.8893 35.0719 45.2744 34.1265 45.5913 33.1495C45.8758 32.2724 46.6789 31.6804 47.5839 31.6804H49.8475C51.0076 31.6804 51.9481 30.7203 51.9481 29.536Z" fill="#B6C4CF"/>
<path d="M31.1762 47.7998C31.0842 48.042 31.034 48.3045 31.034 48.5755V50.8856C31.034 52.0699 30.0933 53.0302 28.9331 53.0302H23.015C21.8548 53.0302 20.9141 52.0699 20.9141 50.8856V48.5755C20.9141 47.6515 20.334 46.8309 19.4748 46.5407C18.5184 46.2174 17.5923 45.8247 16.7028 45.3681C15.8928 44.9519 14.9134 45.1109 14.2727 45.765L12.6714 47.3996C11.8509 48.2372 10.5203 48.2372 9.69977 47.3996L5.51466 43.1284C4.69519 42.2908 4.69519 40.9325 5.51466 40.0949L7.117 38.4602C7.75773 37.8062 7.91347 36.8064 7.50583 35.9795C7.05847 35.0714 6.67382 34.1261 6.35711 33.1497C6.07281 32.2727 5.26903 31.6805 4.36385 31.6805H2.10092C0.940711 31.6805 0 30.7202 0 29.5358V23.4944C0 22.31 0.940711 21.3497 2.10092 21.3497H4.36385C4.62934 21.3497 4.88647 21.2985 5.12374 21.2046C5.12165 21.338 5.1206 21.4724 5.1206 21.6069C5.1206 36.0744 16.6098 47.803 30.7821 47.803C30.9138 47.803 31.0455 47.8019 31.1762 47.7998Z" fill="#9FACBA"/>
<path d="M25.9744 44.1208C35.4993 44.1208 43.2208 36.2384 43.2208 26.5151C43.2208 16.7918 35.4993 8.90948 25.9744 8.90948C16.4495 8.90948 8.72803 16.7918 8.72803 26.5151C8.72803 36.2384 16.4495 44.1208 25.9744 44.1208Z" fill="#9FACBA"/>
<path d="M25.9743 40.3863C33.4787 40.3863 39.5623 34.1759 39.5623 26.5151C39.5623 18.8543 33.4787 12.644 25.9743 12.644C18.4698 12.644 12.3862 18.8543 12.3862 26.5151C12.3862 34.1759 18.4698 40.3863 25.9743 40.3863Z" fill="#F8F7F7"/>
</svg>
