<svg width="14" height="16" viewBox="0 0 14 16" fill="none" xmlns="http://www.w3.org/2000/svg">
<g clip-path="url(#clip0_127_301)">
<path d="M8.05518 8.00164L1.0247 15.7386C0.695475 15.4815 0.500007 15.0538 0.503463 14.5981V1.40521C0.500007 0.949501 0.695475 0.521787 1.0247 0.264648L8.05518 8.00164Z" fill="#2196F3"/>
<path d="M10.5154 5.29916L8.05537 8.00166L1.0249 0.26467C1.05139 0.241207 1.07898 0.219378 1.10753 0.199287C1.4791 -0.0580905 1.94321 -0.0663996 2.32167 0.177493L10.5154 5.29916Z" fill="#4CAF50"/>
<path d="M13.4965 8.00157C13.5011 8.51602 13.2565 8.9912 12.8608 9.23659L10.5152 10.7041L8.05518 8.00157L10.5152 5.29907L12.8608 6.76655C13.2565 7.01194 13.5011 7.48712 13.4965 8.00157Z" fill="#F0BB1F"/>
<path d="M10.5154 10.7042L2.32167 15.8259C1.94238 16.066 1.48002 16.0577 1.10753 15.8041C1.07898 15.784 1.05139 15.7622 1.0249 15.7387L8.0554 8.00171L10.5154 10.7042Z" fill="#F15A2B"/>
</g>
<defs>
<clipPath id="clip0_127_301">
<rect width="14" height="16" fill="white" transform="translate(0 0.000244141)"/>
</clipPath>
</defs>
</svg>
