<svg width="16" height="16" viewBox="0 0 16 16" fill="none" xmlns="http://www.w3.org/2000/svg">
<g clip-path="url(#clip0_127_323)">
<path d="M13.6562 0.000244141H2.34375C1.05156 0.000244141 0 1.05181 0 2.34399V13.6565C0 14.949 1.05156 16.0002 2.34375 16.0002H13.6562C14.9487 16.0002 16 14.949 16 13.6565V2.34399C16 1.05181 14.9487 0.000244141 13.6562 0.000244141ZM15.0625 13.6565C15.0625 14.4318 14.4316 15.0627 13.6562 15.0627H2.34375C1.56844 15.0627 0.9375 14.4318 0.9375 13.6565V2.34399C0.9375 1.56868 1.56844 0.937744 2.34375 0.937744H13.6562C14.4316 0.937744 15.0625 1.56868 15.0625 2.34399V13.6565Z" fill="black"/>
<path d="M13.1562 1.90649C12.6394 1.90649 12.2188 2.32712 12.2188 2.84399C12.2188 3.36087 12.6394 3.78149 13.1562 3.78149C13.6731 3.78149 14.0938 3.36087 14.0938 2.84399C14.0938 2.32712 13.6731 1.90649 13.1562 1.90649Z" fill="black"/>
<path d="M8 3.78149C5.67375 3.78149 3.78125 5.67399 3.78125 8.00024C3.78125 10.3265 5.67375 12.219 8 12.219C10.3263 12.219 12.2188 10.3265 12.2188 8.00024C12.2188 5.67399 10.3263 3.78149 8 3.78149ZM8 11.2815C6.19062 11.2815 4.71875 9.80962 4.71875 8.00024C4.71875 6.19087 6.19062 4.71899 8 4.71899C9.80937 4.71899 11.2812 6.19087 11.2812 8.00024C11.2812 9.80962 9.80937 11.2815 8 11.2815Z" fill="black"/>
</g>
<defs>
<clipPath id="clip0_127_323">
<rect width="16" height="16" fill="white" transform="translate(0 0.000244141)"/>
</clipPath>
</defs>
</svg>
