<svg width="21" height="20" viewBox="0 0 21 20" fill="none" xmlns="http://www.w3.org/2000/svg">
<path d="M18.5681 2.76057L11.6931 17.7606C11.6356 17.8862 11.538 17.9893 11.4157 18.0536C11.2934 18.1179 11.1532 18.1399 11.0171 18.116C10.881 18.0922 10.7566 18.024 10.6634 17.9219C10.5702 17.8199 10.5134 17.6899 10.502 17.5521L9.92071 10.5792L2.94777 9.99795C2.81005 9.98651 2.68001 9.92975 2.57798 9.83655C2.47595 9.74334 2.40769 9.61895 2.38387 9.48283C2.36005 9.34671 2.38201 9.20653 2.44633 9.08421C2.51064 8.9619 2.61368 8.86435 2.73933 8.80683L17.7393 1.93182C17.8553 1.87868 17.9847 1.86229 18.1103 1.88486C18.2358 1.90742 18.3515 1.96786 18.4417 2.05806C18.5319 2.14826 18.5923 2.26389 18.6149 2.38944C18.6374 2.51498 18.621 2.64443 18.5679 2.76039L18.5681 2.76057Z" fill="#080809"/>
</svg>
