<svg width="16" height="13" viewBox="0 0 16 13" fill="none" xmlns="http://www.w3.org/2000/svg">
<path d="M16 1.53924C15.405 1.80024 14.771 1.97324 14.11 2.05724C14.79 1.65124 15.309 1.01324 15.553 0.244244C14.919 0.622244 14.219 0.889244 13.473 1.03824C12.871 0.397244 12.013 0.000244141 11.077 0.000244141C9.261 0.000244141 7.799 1.47424 7.799 3.28124C7.799 3.54124 7.821 3.79124 7.875 4.02924C5.148 3.89624 2.735 2.58924 1.114 0.598244C0.831 1.08924 0.665 1.65124 0.665 2.25624C0.665 3.39224 1.25 4.39924 2.122 4.98224C1.595 4.97224 1.078 4.81924 0.64 4.57824C0.64 4.58824 0.64 4.60124 0.64 4.61424C0.64 6.20824 1.777 7.53224 3.268 7.83724C3.001 7.91024 2.71 7.94524 2.408 7.94524C2.198 7.94524 1.986 7.93324 1.787 7.88924C2.212 9.18824 3.418 10.1432 4.852 10.1742C3.736 11.0472 2.319 11.5732 0.785 11.5732C0.516 11.5732 0.258 11.5612 0 11.5282C1.453 12.4652 3.175 13.0002 5.032 13.0002C11.068 13.0002 14.368 8.00024 14.368 3.66624C14.368 3.52124 14.363 3.38124 14.356 3.24224C15.007 2.78024 15.554 2.20324 16 1.53924Z" fill="#080809"/>
</svg>
